<svg xmlns="http://www.w3.org/2000/svg" enable-background="new 0 0 1073.4 635.1" viewBox="0 0 1073.4 635.1"><path fill="#f8f8ff" d="M53.9,573.7c-32.5-30-54-73.4-47.7-117.2c13.1-90-45.9-204.4,49.3-237.9c48.1-17,40.2-142,78.8-176.8
	c66.7-60,173.5,16.1,384.7,4.8C725.8,35.5,817.2-72.8,958.7,84.8c110.3,122.9,26.9,190.2,105,303.3c47.8,69.2-94.8,216.1-94.8,216.1
	l-882.3-0.4L53.9,573.7z"/><linearGradient id="a" x1="1044.234" x2="1043.704" y1="-112.87" y2="339.25" gradientTransform="matrix(1 0 0 -1 -517.22 491.38)" gradientUnits="userSpaceOnUse"><stop offset="0" stop-color="#fff"/><stop offset="1" stop-color="#bac6f2"/></linearGradient><path fill="url(#a)" stroke="#bac6f2" stroke-miterlimit="10" stroke-width="5" d="M61.8,623.4c0,0,9-126,79.5-113.5c70.1,12.4,62,76,98,68s38.9-93.8,53-196c12.2-88.7,60.8-61.5,69.9-32.9
	c7.6,24,10.6,99.4,39.6,104.4s39-52,41-80s12-142,48.5-143.5c34.5-1.4,49.5,49.5,49.5,146.5s4,160,20,186s37,19,43.5,15.5
	c8.1-4.4,32.5-45.5,38.5-147.5s46-87,55-72s33.5,97.5,63.5,95.5s38.5-21.5,43.5-67.5s12.4-159.9,50.5-158.5
	c39.5,1.5,55.3,181.6,54.7,235.8c-0.8,68.3,50.3,149.2,82.3,149.2"/><circle cx="236.8" cy="577.4" r="13" fill="#bac6f2"/><circle cx="60.8" cy="622.1" r="13" fill="#bac6f2"/><circle cx="409.8" cy="451.4" r="13" fill="#bac6f2"/><circle cx="329.8" cy="322.5" r="13" fill="#bac6f2"/><circle cx="496" cy="231.2" r="13" fill="#bac6f2"/><circle cx="680.8" cy="350.4" r="13" fill="#bac6f2"/><circle cx="769.6" cy="453.6" r="13" fill="#bac6f2"/><circle cx="853" cy="229.8" r="13" fill="#bac6f2"/><circle cx="991.9" cy="614" r="13" fill="#bac6f2"/><circle cx="589.8" cy="578.4" r="13" fill="#bac6f2"/><circle cx="208.6" cy="180.8" r="47.9" fill="#fff"/><circle cx="256.4" cy="184.3" r="34.6" fill="#fff" transform="rotate(-80.781 256.403 184.296)"/><circle cx="777.3" cy="114.7" r="47.9" fill="#fff"/><circle cx="825.2" cy="118.1" r="34.6" fill="#fff"/><path fill="#bac6f2" d="M939 335.1l23.8-34c2.6-4.6 9.9-4.2 13.4-.3l23.4 32c4.8 5.4 2.3 15.4-4.9 15.5l-47.3.8c-5.2.1-9.5-4.1-9.5-9.3C937.8 338.2 938.2 336.6 939 335.1zM91 358.8l-23.8 33.9c-2.6 4.6-9.9 4.2-13.4.2l-23.3-32.1c-4.8-5.4-2.2-15.4 5-15.5l47.3-.7c5.2 0 9.5 4.1 9.5 9.3C92.2 355.7 91.8 357.4 91 358.8z"/><linearGradient id="b" x1="1938.258" x2="1834.588" y1="1259.002" y2="1183.672" gradientTransform="translate(-935 -1005.37)" gradientUnits="userSpaceOnUse"><stop offset="0" stop-color="#f92468"/><stop offset="1" stop-color="#f9b449"/></linearGradient><path fill="url(#b)" d="M891,210.2l15-1c0,0,3-18,15-24v-20c0,0,14,8,17,9s30-12,61,7c26.1,16,20.3,44.1,17.8,52.5
			c-0.4,1.5-1.2,3-2.1,4.3c-2.2,3-6.5,9-8.7,11.2c-3,3,1.9,19.7-2,21c-3,1-9-12-12-11c-16.1,5.4-33.5,6-50,1.6
			c-1.1-0.3-2.3,0.2-2.8,1.3c-1.3,2.7-4,7.8-6.2,9.2c-3,2-3-11-6-13s-36-31-36-31V210.2z"/><path fill="none" stroke="#f93764" stroke-linecap="round" stroke-miterlimit="10" stroke-width="4" d="M1016.5,213.3c0,0,12.3-8.7,18.8-2.2s5.5,13.2,0.3,14.8c-3.9,1.2-10.1-5.4-7.4-9.6c2.7-4.2,7.3-6.5,12.6-3
			c5.3,3.5,7.7,10.7,8,14.7"/><circle cx="923" cy="211.6" r="5.6" fill="#f7b14a"/><linearGradient id="c" x1="1880.265" x2="1918.165" y1="1182.123" y2="1182.123" gradientTransform="translate(-935 -1005.37)" gradientUnits="userSpaceOnUse"><stop offset="0" stop-color="#f92468"/><stop offset="1" stop-color="#f93764"/></linearGradient><path fill="none" stroke="url(#c)" stroke-linecap="round" stroke-linejoin="round" d="M945.8,177.7c0,0,22.4-6,36.9,0.6"/><g><linearGradient id="d" x1="935.582" x2="978.132" y1="772.496" y2="709.116" gradientTransform="translate(0 -596)" gradientUnits="userSpaceOnUse"><stop offset="0" stop-color="#f92468"/><stop offset="1" stop-color="#f9b449"/></linearGradient><circle cx="964.7" cy="133.1" r="22.4" fill="url(#d)"/><linearGradient id="e" x1="945.715" x2="983.315" y1="729.202" y2="729.202" gradientTransform="translate(0 -596)" gradientUnits="userSpaceOnUse"><stop offset="0" stop-color="#f92468"/><stop offset="1" stop-color="#f93764"/></linearGradient><circle cx="964.5" cy="133.2" r="18.3" fill="none" stroke="url(#e)" stroke-miterlimit="10"/><text fill="#f9b449" font-family="ArialMT" font-size="26.71" transform="translate(957.275 141.622)">$</text></g><g><linearGradient id="f" x1="971.531" x2="999.541" y1="716.882" y2="675.152" gradientTransform="translate(0 -596)" gradientUnits="userSpaceOnUse"><stop offset="0" stop-color="#f92468"/><stop offset="1" stop-color="#f9b449"/></linearGradient><circle cx="990.7" cy="92.3" r="14.7" fill="url(#f)"/><linearGradient id="g" x1="978.075" x2="1003.175" y1="688.402" y2="688.402" gradientTransform="translate(0 -596)" gradientUnits="userSpaceOnUse"><stop offset="0" stop-color="#f92468"/><stop offset="1" stop-color="#f93764"/></linearGradient><circle cx="990.6" cy="92.4" r="12.1" fill="none" stroke="url(#g)" stroke-miterlimit="10"/><text fill="#f9b449" font-family="ArialMT" font-size="17.58" transform="translate(985.845 97.942)">$</text></g><g><linearGradient id="h" x1="924.309" x2="944.359" y1="718.514" y2="688.654" gradientTransform="translate(0 -596)" gradientUnits="userSpaceOnUse"><stop offset="0" stop-color="#f92468"/><stop offset="1" stop-color="#f9b449"/></linearGradient><circle cx="938" cy="102.1" r="10.5" fill="url(#h)"/><linearGradient id="i" x1="928.865" x2="947.105" y1="698.102" y2="698.102" gradientTransform="translate(0 -596)" gradientUnits="userSpaceOnUse"><stop offset="0" stop-color="#f92468"/><stop offset="1" stop-color="#f93764"/></linearGradient><circle cx="938" cy="102.1" r="8.6" fill="none" stroke="url(#i)" stroke-miterlimit="10"/><text fill="#f9b449" font-family="ArialMT" font-size="12.58" transform="translate(934.575 106.112)">$</text></g><g><path fill="#f4f4f4" d="M61 473.4h56c.5 0 .9.4.9.9l0 0c0 .5-.4.9-.9.9H61c-.5 0-.9-.4-.9-.9l0 0C60.1 473.8 60.5 473.4 61 473.4zM61 476.8h56c.5 0 .9.4.9.9l0 0c0 .5-.4.9-.9.9H61c-.5 0-.9-.4-.9-.9l0 0C60.1 477.2 60.5 476.8 61 476.8zM61 480.1h56c.5 0 .9.4.9.9l0 0c0 .5-.4.9-.9.9H61c-.5 0-.9-.4-.9-.9l0 0C60.1 480.6 60.5 480.1 61 480.1zM73.8 491h51.1c.5 0 .9.4.9.9l0 0c0 .5-.4.9-.9.9H73.8c-.5 0-.9-.4-.9-.9l0 0C72.9 491.5 73.3 491 73.8 491zM73.8 494.4h51.1c.5 0 .9.4.9.9l0 0c0 .5-.4.9-.9.9H73.8c-.5 0-.9-.4-.9-.9l0 0C72.9 494.8 73.3 494.4 73.8 494.4zM73.8 497.8h51.1c.5 0 .9.4.9.9l0 0c0 .5-.4.9-.9.9H73.8c-.5 0-.9-.4-.9-.9l0 0C72.9 498.2 73.3 497.8 73.8 497.8z"/><path fill="#4b46bd" d="M-14.8,469.7"/><linearGradient id="j" x1="724.142" x2="865.11" y1="1358.704" y2="1358.704" gradientTransform="translate(-746 -881)" gradientUnits="userSpaceOnUse"><stop offset="0" stop-color="#4b46bd"/><stop offset="1" stop-color="#5cd4ee"/></linearGradient><path fill="url(#j)" d="M-14.2,469.8c0,0-7.6,0.6-7.6,8.1c0,7.5,7.9,7.9,7.9,7.9l133.1,0.4v-2.3H59.7c0,0-1.9,0.4-1.5-2.6v-7.9
			c0-0.9,0.7-1.7,1.6-1.8H60c2.7,0,58.3,0.6,58.3,0.6v-3L-14.2,469.8z"/><line x1="59" x2="116.5" y1="473" y2="473.3" fill="none"/><line x1="59" x2="116.5" y1="474.5" y2="474.8" fill="none"/><line x1="59" x2="116.5" y1="476" y2="476.3" fill="none"/><line x1="59" x2="116.5" y1="477.5" y2="477.8" fill="none"/><line x1="59" x2="116.5" y1="479.4" y2="479.7" fill="none"/><line x1="59" x2="116.5" y1="481.3" y2="481.5" fill="none"/><g><linearGradient id="k" x1="729.104" x2="873.154" y1="1375.883" y2="1375.883" gradientTransform="translate(-746 -881)" gradientUnits="userSpaceOnUse"><stop offset="0" stop-color="#f71f68"/><stop offset="1" stop-color="#f9c448"/></linearGradient><path fill="url(#k)" d="M-8.6,485.8c0,0-8.3,0.9-8.3,9.2c0,7.1,5.8,8.8,7.4,9.1c0.3,0,0.5,0.1,0.8,0.1l135.9,0.2l-0.1-2.8l-52.7-0.2
			c0,0-3.4,0-3-3.3V491c0,0-0.4-2.6,2.6-2.6c2.6,0,52.3,0.6,52.3,0.6v-3.6L-8.6,485.8z"/><line x1="72.5" x2="122.5" y1="490.3" y2="490.6" fill="none"/><line x1="72.5" x2="122.5" y1="491.8" y2="492.1" fill="none"/><line x1="72.5" x2="122.5" y1="493.3" y2="493.6" fill="none"/><line x1="72.5" x2="122.5" y1="494.8" y2="495.1" fill="none"/><line x1="72.5" x2="122.5" y1="496.7" y2="497" fill="none"/><line x1="72.5" x2="122.5" y1="498.6" y2="498.9" fill="none"/><line x1="72.5" x2="122.5" y1="500.1" y2="500.4" fill="none"/><path fill="#f8246a" d="M68.1,473.4h4.5c1.3,0.9,2.2,2.2,2.6,3.8c0.8,2.6,0,3.4,1.5,6.4c0.9,1.8,1.9,2.9,2.6,4.1
			c0.2,0.3,0.3,2,0.4,2.3l0.4,4.5l-1.9-1.1l-1.9,1.9c0,0,0-6-0.8-7.1c-0.8-1.1-3.7-5.3-3.4-8.3C72.6,476.4,71.5,475.3,68.1,473.4z"/></g><linearGradient id="l" x1="116.914" x2="195.522" y1="963.573" y2="865.493" gradientTransform="translate(0 -478)" gradientUnits="userSpaceOnUse"><stop offset="0" stop-color="#4b46bd"/><stop offset="1" stop-color="#5cd4ee"/></linearGradient><path fill="url(#l)" d="M141.3,390.7h10.3c2.5,0,4.5,2,4.5,4.5v107.1c0,2.5-2,4.5-4.5,4.5h-10.3c-2.5,0-4.5-2-4.5-4.5V395.2
		C136.8,392.7,138.8,390.7,141.3,390.7z"/><linearGradient id="m" x1="-96.981" x2="-18.373" y1="962.821" y2="864.741" gradientTransform="translate(0 -478)" gradientUnits="userSpaceOnUse"><stop offset="0" stop-color="#4b46bd"/><stop offset="1" stop-color="#5cd4ee"/></linearGradient><path fill="url(#m)" d="M-72.6,389.9h10.3c2.5,0,4.5,2,4.5,4.5v107.1c0,2.5-2,4.5-4.5,4.5h-10.3c-2.5,0-4.5-2-4.5-4.5V394.4
		C-77.1,392-75.1,389.9-72.6,389.9z"/><linearGradient id="n" x1="550.231" x2="623.857" y1="1031.612" y2="939.746" gradientTransform="matrix(.7881 -.455 .37 .6409 -623.235 93.632)" gradientUnits="userSpaceOnUse"><stop offset="0" stop-color="#4b46bd"/><stop offset="1" stop-color="#5cd4ee"/></linearGradient><path fill="url(#n)" d="M177.4,436.8l7.4-4.2c2.1-1.2,4.9-0.5,6.2,1.7l35.7,61.9c1.2,2.1,0.5,4.9-1.7,6.2l-7.4,4.2
		c-2.1,1.2-4.9,0.5-6.2-1.7l-35.7-61.9C174.5,440.8,175.2,438,177.4,436.8z"/><linearGradient id="o" x1="139.809" x2="208.172" y1="967.05" y2="881.751" gradientTransform="translate(0 -478)" gradientUnits="userSpaceOnUse"><stop offset="0" stop-color="#f71f68"/><stop offset="1" stop-color="#f9c448"/></linearGradient><path fill="url(#o)" d="M160.3,407.2h10.3c2.5,0,4.5,2,4.5,4.5v90.6c0,2.5-2,4.5-4.5,4.5h-10.3c-2.5,0-4.5-2-4.5-4.5v-90.6
		C155.8,409.3,157.8,407.2,160.3,407.2z"/><linearGradient id="p" x1="-76.594" x2="-.547" y1="963.693" y2="868.809" gradientTransform="translate(0 -478)" gradientUnits="userSpaceOnUse"><stop offset="0" stop-color="#f71f68"/><stop offset="1" stop-color="#f9c448"/></linearGradient><path fill="url(#p)" d="M-53.2,394.1h10.3c2.5,0,4.5,2,4.5,4.5v103c0,2.5-2,4.5-4.5,4.5h-10.3c-2.5,0-4.5-2-4.5-4.5v-103
		C-57.7,396.1-55.7,394.1-53.2,394.1z"/></g></svg>