<?xml version="1.0" standalone="no"?>
<!DOCTYPE svg PUBLIC "-//W3C//DTD SVG 20010904//EN"
 "http://www.w3.org/TR/2001/REC-SVG-20010904/DTD/svg10.dtd">
<svg version="1.0" xmlns="http://www.w3.org/2000/svg"
 width="300.000000pt" height="300.000000pt" viewBox="0 0 300.000000 300.000000"
 preserveAspectRatio="xMidYMid meet">
<metadata>
Created by potrace 1.10, written by Peter Selinger 2001-2011
</metadata>
<g transform="translate(0.000000,300.000000) scale(0.100000,-0.100000)"
fill="#000000" stroke="none">
<path d="M1380 2356 l-105 -62 -5 -129 -5 -129 -56 -33 -57 -33 -109 64 -109
63 -115 -67 -114 -66 -3 -135 -3 -135 111 -63 110 -63 0 -68 0 -68 -110 -62
-110 -62 0 -136 0 -137 115 -67 115 -67 111 65 110 64 57 -33 57 -33 3 -127 3
-126 93 -55 c149 -88 126 -87 252 -14 l109 64 3 127 3 126 60 36 60 35 104
-61 c58 -33 110 -59 117 -57 8 2 62 30 121 63 l107 60 0 137 0 137 -110 62
-110 63 0 66 0 66 110 63 110 63 0 137 -1 136 -116 66 -116 67 -108 -64 -108
-64 -60 35 -61 36 0 127 0 127 -108 60 c-59 33 -114 61 -122 62 -8 1 -62 -27
-120 -61z m215 -20 l96 -54 -94 -54 -94 -55 -91 51 c-51 28 -92 53 -92 56 0 4
159 102 177 109 2 1 46 -23 98 -53z m110 -176 c0 -55 -2 -100 -5 -100 -3 0
-42 22 -87 48 l-83 48 88 51 c48 28 87 52 87 52 0 1 0 -44 0 -99z m-312 41
c43 -23 77 -44 75 -46 -7 -6 -160 -95 -164 -95 -2 0 -4 43 -4 96 0 53 3 94 8
92 4 -1 42 -23 85 -47z m94 -267 c-4 -5 -166 89 -167 96 0 3 37 26 83 52 l82
47 3 -96 c1 -53 1 -97 -1 -99z m116 147 c42 -25 77 -48 77 -51 0 -5 -125 -81
-160 -97 -3 -2 -5 42 -5 97 0 55 2 99 5 98 3 -2 40 -23 83 -47z m-574 -74 l91
-54 -93 -54 -93 -55 -93 55 c-64 37 -89 57 -80 62 8 4 48 28 89 53 41 25 78
45 81 45 4 1 48 -23 98 -52z m1143 -4 l85 -49 -86 -50 c-47 -27 -91 -50 -97
-52 -7 -2 -53 20 -103 49 l-91 52 92 54 c51 29 98 51 103 49 6 -2 50 -26 97
-53z m-779 -53 l97 -55 0 -67 0 -66 -103 -60 -104 -59 -59 34 -59 34 5 120 5
119 50 30 c28 16 55 28 60 27 6 -1 54 -27 108 -57z m388 28 l59 -33 0 -117 0
-116 -61 -34 -61 -35 -102 58 -101 59 5 71 5 71 95 54 c52 29 96 54 98 54 2 0
30 -15 63 -32z m-861 -268 l0 -109 -95 56 -95 55 0 108 0 109 95 -56 95 -55 0
-108z m216 23 c-2 -2 -21 6 -43 20 -21 13 -59 35 -85 49 l-48 25 88 50 87 50
3 -95 c1 -52 1 -97 -2 -99z m837 133 l68 -38 -86 -49 c-47 -27 -86 -49 -88
-49 -1 0 -2 45 -2 100 0 97 0 99 20 86 11 -7 51 -30 88 -50z m297 -46 l0 -109
-72 -42 c-40 -23 -83 -49 -95 -57 l-23 -14 0 109 0 110 93 56 c50 30 93 55 95
56 1 1 2 -48 2 -109z m-1217 -78 l67 -39 -85 -51 -85 -50 0 99 c0 92 1 99 18
90 9 -5 47 -27 85 -49z m1002 -42 l0 -99 -35 21 c-19 11 -59 34 -88 50 l-52
30 82 48 c46 27 85 49 88 49 3 1 5 -44 5 -99z m-569 -167 c-2 -2 -42 17 -89
44 l-84 48 86 50 86 51 3 -94 c1 -52 1 -97 -2 -99z m156 120 l48 -26 -83 -48
c-45 -27 -84 -49 -87 -49 -3 0 -5 45 -5 99 l0 99 40 -24 c22 -14 61 -36 87
-51z m-427 -4 l55 -31 0 -117 0 -117 -62 -35 -61 -36 -96 57 -96 57 -3 70 -3
71 93 55 c51 31 99 56 106 56 7 1 37 -13 67 -30z m741 -25 l95 -56 -3 -70 -3
-70 -93 -54 c-52 -30 -97 -54 -102 -54 -5 0 -33 15 -64 33 l-56 32 0 115 0
116 53 31 c28 17 58 32 65 32 7 1 56 -24 108 -55z m-486 -126 c0 -5 -4 -8 -9
-8 -5 0 -43 -20 -85 -45 l-76 -45 0 99 0 99 85 -47 c46 -25 85 -49 85 -53z
m235 2 c0 -55 -1 -100 -2 -100 -1 0 -40 23 -87 51 l-86 52 47 25 c27 14 64 35
83 48 19 13 37 23 40 23 3 1 5 -44 5 -99z m-195 0 c0 -5 -2 -10 -4 -10 -3 0
-8 5 -11 10 -3 6 -1 10 4 10 6 0 11 -4 11 -10z m-20 -129 l0 -100 -88 52 -88
52 80 47 c45 26 84 47 89 47 4 1 7 -44 7 -98z m117 51 l81 -47 -86 -51 -87
-50 0 98 c0 54 2 98 5 98 3 0 42 -22 87 -48z m-691 -219 c-2 -2 -42 18 -89 45
l-85 49 86 49 87 50 3 -94 c1 -52 1 -97 -2 -99z m1139 97 c0 -55 0 -100 -1
-100 0 0 -40 22 -88 49 l-86 48 82 51 c46 27 85 50 88 51 3 1 5 -44 5 -99z
m163 23 c17 -9 32 -19 32 -23 0 -5 -134 -86 -162 -98 -5 -2 -8 42 -8 97 l0
101 53 -30 c28 -17 67 -39 85 -47z m-1175 18 l78 -44 -43 -24 c-24 -13 -62
-35 -85 -49 l-43 -25 0 96 c0 53 3 95 8 93 4 -1 42 -23 85 -47z m365 -55 l82
-48 0 -66 0 -67 -68 -37 c-37 -21 -83 -47 -103 -59 l-37 -22 -61 37 -61 37 0
113 0 112 62 36 c55 33 65 36 83 24 11 -7 57 -34 103 -60z m427 -113 l0 -117
-57 -34 -58 -34 -99 57 -99 56 -4 70 -3 69 100 58 100 59 60 -33 60 -33 0
-118z m-987 28 l72 -42 0 -104 c0 -58 -2 -105 -5 -105 -3 0 -46 23 -95 51
l-90 51 0 110 0 110 23 -14 c12 -8 55 -34 95 -57z m287 -31 l0 -99 -22 14
c-12 8 -52 31 -88 51 l-66 36 83 48 c46 26 85 48 88 49 3 1 5 -44 5 -99z m821
51 l85 -49 -68 -37 c-37 -21 -77 -44 -88 -51 -20 -13 -20 -11 -20 86 0 55 1
100 3 100 1 0 41 -22 88 -49z m314 -59 l0 -108 -87 -50 c-48 -27 -91 -50 -95
-52 -4 -2 -8 45 -8 105 l0 108 93 52 c50 29 93 52 95 53 1 0 2 -49 2 -108z
m-1232 -66 l84 -49 -84 -48 c-45 -27 -85 -49 -88 -49 -3 0 -5 45 -5 100 0 55
2 99 5 98 3 -2 43 -25 88 -52z m1017 -46 c0 -55 -1 -100 -3 -100 -1 0 -41 22
-88 49 l-85 48 88 51 c48 28 88 51 88 51 0 1 0 -44 0 -99z m-565 -81 l0 -101
-52 32 c-29 17 -68 38 -85 47 -18 9 -33 19 -33 22 0 6 150 98 163 100 4 0 7
-44 7 -100z m68 78 c20 -13 59 -35 85 -49 l48 -26 -83 -48 c-46 -27 -85 -50
-88 -51 -3 -2 -5 42 -5 97 0 55 1 100 3 100 1 0 19 -11 40 -23z m-155 -162
l87 -50 0 -107 c0 -60 -2 -108 -3 -108 -2 0 -42 22 -88 50 -46 27 -87 50 -91
50 -5 0 -8 50 -8 111 0 61 3 109 8 107 4 -1 47 -25 95 -53z m299 -52 l-3 -108
-91 -53 c-50 -29 -92 -51 -92 -50 -1 2 1 52 4 111 l5 108 85 49 c47 27 87 50
90 50 3 0 4 -48 2 -107z"/>
</g>
</svg>
