<?xml version="1.0" encoding="utf-8"?><svg version="1.1" id="Layer_1" xmlns="http://www.w3.org/2000/svg" xmlns:xlink="http://www.w3.org/1999/xlink" x="0px" y="0px" viewBox="0 0 122.88 108.42" style="enable-background:new 0 0 122.88 108.42" xml:space="preserve"><g><path d="M30.44,17.91h62l28.35-17.7c0.64-0.4,1.48-0.2,1.88,0.44c0.14,0.22,0.21,0.47,0.21,0.72l0,96.14 c0,0.76-0.61,1.37-1.37,1.37c-0.31,0-0.59-0.1-0.82-0.27L92.45,81.15H30.43L2.18,98.6c-0.23,0.17-0.51,0.27-0.82,0.27 C0.61,98.87,0,98.26,0,97.5V1.37c0-0.25,0.07-0.5,0.21-0.72C0.61,0,1.45-0.19,2.09,0.21L30.44,17.91L30.44,17.91z M30.48,89.68 l1.09,9.93c0.1-0.01,0.21-0.01,0.32,0.02l9.07,2.03c0.11,0.02,0.2,0.06,0.29,0.12l5.15-8.54L30.48,89.68L30.48,89.68z M31.47,101.53l-0.87,3.9c-0.15,0.66,0.27,1.32,0.93,1.47l6.67,1.49c0.66,0.15,1.32-0.27,1.47-0.93l0.87-3.9L31.47,101.53 L31.47,101.53L31.47,101.53z M95.53,89.68l-1.09,9.93c-0.1-0.01-0.21-0.01-0.32,0.02l-9.07,2.03c-0.11,0.02-0.21,0.06-0.29,0.12 l-5.15-8.54L95.53,89.68L95.53,89.68z M94.55,101.53l0.87,3.9c0.15,0.66-0.27,1.32-0.93,1.47l-6.67,1.49 c-0.66,0.15-1.32-0.27-1.47-0.93l-0.87-3.9L94.55,101.53L94.55,101.53L94.55,101.53z M44.77,31.99H78.3c0.57,0,1.03,0.46,1.03,1.03 v24.22c0,0.57-0.46,1.03-1.03,1.03H44.77c-0.57,0-1.03-0.46-1.03-1.03V33.02C43.74,32.45,44.2,31.99,44.77,31.99L44.77,31.99z M112.02,16.22l-9.94,5.83c-0.64,0.38-1.36,0.61-1.36,1.36V62.4c0,0.75,0.73,0.96,1.36,1.36l9.94,6.25 c0.63,0.4,1.36-0.61,1.36-1.36V17.57C113.38,16.83,112.66,15.84,112.02,16.22L112.02,16.22z M94.2,20.02v59.01l25.94,16.03V3.83 L94.2,20.02L94.2,20.02z M91.46,78.42V20.64H31.42v57.78H91.46L91.46,78.42z M10.86,16.22l9.94,5.83c0.64,0.38,1.36,0.61,1.36,1.36 V62.4c0,0.75-0.73,0.96-1.36,1.36l-9.94,6.25c-0.63,0.4-1.36-0.61-1.36-1.36V17.57C9.5,16.83,10.22,15.84,10.86,16.22L10.86,16.22z M40.46,26.39h42.15c0.74,0,1.42,0.31,1.92,0.8l0.01,0.01c0.49,0.49,0.8,1.17,0.8,1.92v32.35c0,0.74-0.31,1.42-0.8,1.92l-0.01,0.01 c-0.49,0.49-1.17,0.8-1.92,0.8H40.46c-0.74,0-1.42-0.31-1.92-0.8l-0.01-0.01c-0.49-0.49-0.8-1.17-0.8-1.92V29.11 c0-0.74,0.31-1.42,0.8-1.92l0.01-0.01C39.04,26.69,39.71,26.39,40.46,26.39L40.46,26.39z M82.6,29.12H40.47v32.33H82.6V29.12 L82.6,29.12z M28.69,79.03v-59L2.73,3.83v91.23L28.69,79.03L28.69,79.03z"/></g></svg>