<?xml version="1.0" encoding="UTF-8" standalone="no"?>
<!DOCTYPE svg PUBLIC "-//W3C//DTD SVG 1.1//EN" "http://www.w3.org/Graphics/SVG/1.1/DTD/svg11.dtd">
<svg width="100%" height="100%" viewBox="0 0 600 400" version="1.1" xmlns="http://www.w3.org/2000/svg" xmlns:xlink="http://www.w3.org/1999/xlink" xml:space="preserve" xmlns:serif="http://www.serif.com/" style="fill-rule:evenodd;clip-rule:evenodd;stroke-linejoin:round;stroke-miterlimit:2;">
    <g id="Layer1">
        <rect x="-1028.23" y="-248.288" width="1712.17" height="4055.19" style="fill:#3d4345;"/>
        <rect x="-13.101" y="-13.059" width="626.202" height="426.201" style="fill:url(#_Radial1);"/>
        <g>
            <g>
                <g>
                    <rect x="600" y="-26.201" width="26.202" height="26.202"/>
                    <rect x="-26.202" y="-26.201" width="26.202" height="26.202"/>
                </g>
                <g>
                    <rect x="600" y="400" width="26.202" height="26.202"/>
                    <rect x="-26.202" y="400" width="26.202" height="26.202"/>
                </g>
                <g opacity="0.37">
                    <rect x="600" y="0.316" width="26.202" height="399.684"/>
                    <rect x="-26.202" y="0.316" width="26.202" height="399.684"/>
                </g>
            </g>
            <g opacity="0.37">
                <path d="M0.06,0.04L0.06,-26.161L599.931,-26.161L599.931,0.04L0.06,0.04Z"/>
                <path d="M0.06,426.239L0.06,400.037L599.931,400.037L599.931,426.239L0.06,426.239Z"/>
            </g>
        </g>
        <g id="CorelEMF" serif:id="CorelEMF">
        </g>
        <g id="CorelEMF1" serif:id="CorelEMF">
        </g>
        <g id="CorelEMF2" serif:id="CorelEMF">
        </g>
        <g id="CorelEMF3" serif:id="CorelEMF">
        </g>
        <circle cx="303.359" cy="200.041" r="132.987" style="fill:#373737;"/>
        <g>
            <path d="M349.047,200.173C339.52,197.935 329.705,201.039 321.045,205.585C309.065,211.72 302.136,201.183 306.106,193.244C309.858,185.811 320.467,185.738 327.54,186.027C335.19,186.244 342.046,190.43 346.593,196.42C347.531,197.574 348.325,198.801 349.047,200.173Z" style="fill:#3e9740;"/>
            <path d="M280.052,158.458C282.867,167.768 290.445,174.696 298.744,179.965C310.075,187.254 304.373,198.513 295.497,199.018C287.197,199.523 281.856,190.357 278.537,184.079C274.928,177.367 275.145,169.356 278.031,162.355C278.537,161.056 279.258,159.685 280.052,158.458Z" style="fill:#ff5700;"/>
            <path d="M278.392,238.928C285.032,231.783 287.197,221.751 287.702,212.008C288.28,198.513 300.909,197.791 305.817,205.224C310.364,212.153 305.095,221.391 301.342,227.381C297.301,233.876 290.3,237.701 282.795,238.711C281.351,238.928 279.836,239 278.392,238.928Z" style="fill:#0053a1;"/>
            <path d="M327.612,183.14C345.943,181.047 364.203,189.563 372.502,208.111C382.462,230.34 371.925,257.187 349.841,266.064C325.303,276.023 312.096,240.083 339.304,231.206C368.388,221.751 352.727,184.006 327.612,183.14Z" style="fill:url(#_Linear2);"/>
            <path d="M276.011,185.45C265.041,170.655 263.309,150.519 275.217,134.137C289.506,114.362 317.941,110.104 336.706,124.755C357.635,141.065 333.097,170.438 311.807,151.313C289.073,130.889 264.247,163.294 276.011,185.45Z" style="fill:url(#_Linear3);"/>
            <path d="M362.124,158.985C365.735,164.284 364.366,171.517 359.067,175.128C353.769,178.74 346.536,177.37 342.924,172.072C339.313,166.774 340.682,159.54 345.98,155.929C351.279,152.318 358.512,153.687 362.124,158.985Z" style="fill:#fbc600;"/>
            <path d="M257.641,166.804C261.252,172.102 259.883,179.335 254.585,182.947C249.286,186.558 242.053,185.189 238.441,179.891C234.83,174.592 236.2,167.359 241.498,163.747C246.796,160.136 254.03,161.505 257.641,166.804Z" style="fill:#00d6ff;"/>
            <path d="M316.653,253.379C320.265,258.677 318.895,265.911 313.597,269.522C308.299,273.134 301.065,271.764 297.454,266.466C293.842,261.168 295.212,253.934 300.51,250.323C305.808,246.711 313.042,248.081 316.653,253.379Z" style="fill:#bcf100;"/>
            <path d="M303.796,228.896C296.435,245.784 279.908,257.331 259.772,255.238C235.523,252.712 217.553,230.267 220.873,206.668C224.553,180.47 262.226,186.965 256.308,214.967C250.029,244.846 290.517,250.186 303.796,228.896Z" style="fill:url(#_Linear4);"/>
        </g>
        <path d="M197.764,175.759L198.723,170.328L200.32,170.328C201.598,170.647 202.876,171.286 203.515,171.606C204.154,172.245 204.793,173.203 204.793,174.801C204.793,176.079 204.474,178.315 204.154,181.51C203.515,185.025 202.876,187.581 202.557,188.859C202.237,190.456 201.598,191.415 201.279,192.054C200.64,192.693 200.001,193.012 199.362,193.332C198.723,193.651 198.084,193.651 197.125,193.651C196.167,193.332 194.569,193.332 192.652,193.012C190.416,192.373 188.818,192.054 188.179,192.054C187.221,191.734 186.582,191.415 185.943,191.095C184.984,190.456 184.345,189.178 184.345,187.581C184.345,185.983 184.665,182.788 185.304,178.315C185.943,176.079 186.262,174.162 186.582,173.203C186.901,172.245 187.221,171.286 187.54,170.967C188.179,170.008 188.818,169.689 189.457,169.369L192.972,169.369C192.972,169.369 193.291,169.689 193.93,169.689L192.972,175.12L191.694,175.12C191.374,175.12 191.374,175.12 191.055,175.44C191.055,175.44 190.735,176.079 190.416,176.718C190.096,177.676 190.096,178.954 189.777,180.552C189.457,182.469 189.138,183.747 189.138,184.386C189.138,185.025 189.138,185.344 189.457,185.664C189.457,185.983 190.096,186.303 190.416,186.622C191.055,186.942 192.013,187.261 193.611,187.261C194.889,187.581 195.847,187.9 196.486,187.581C197.125,187.581 197.445,187.581 197.764,187.261C198.084,186.942 198.403,186.622 198.403,185.983C198.723,185.344 199.042,184.066 199.362,182.469C199.681,180.232 199.681,178.954 200.001,177.996C200.001,177.357 200.001,177.037 199.681,176.718C199.362,176.398 198.723,176.079 197.764,175.759ZM193.291,205.792C195.847,205.792 197.764,207.709 197.764,210.265C197.764,212.821 195.847,214.738 193.291,214.738C191.055,214.738 189.138,212.821 189.138,210.265C189.138,207.709 191.055,205.792 193.291,205.792ZM412.148,205.792C414.704,205.792 416.621,207.709 416.621,210.265C416.621,212.821 414.704,214.738 412.148,214.738C409.912,214.738 407.675,212.821 407.675,210.265C407.675,207.709 409.912,205.792 412.148,205.792ZM193.291,230.074L195.208,235.186C194.25,235.506 193.93,235.825 193.93,236.145C193.611,236.464 193.93,236.784 193.93,237.423C193.93,237.742 194.569,239.02 195.208,240.937C196.167,243.174 196.806,244.452 196.806,244.771C197.125,245.091 197.125,245.41 197.445,245.73C197.764,246.049 198.403,246.049 199.042,245.73C199.362,245.73 199.681,245.41 199.681,245.091C199.681,244.771 199.681,244.132 199.362,243.174C199.042,242.535 198.723,241.257 198.084,239.34C197.125,237.103 196.806,235.825 196.486,235.186C196.167,233.908 195.847,232.95 195.847,232.311C195.847,231.352 195.847,230.713 196.167,230.394C196.486,229.435 197.764,228.796 199.362,227.838C201.279,227.199 202.557,227.199 203.835,227.518C204.474,227.838 205.432,228.477 205.752,229.435C206.391,230.713 207.349,232.95 208.947,236.464C209.905,238.701 210.544,240.618 210.544,241.576C211.183,243.174 211.183,244.452 210.544,245.091C210.225,246.049 209.266,246.688 207.669,247.327C207.669,247.327 207.349,247.647 207.03,247.647L205.113,242.854C205.432,242.535 205.752,242.215 206.071,242.215L206.071,241.576C206.391,241.576 206.071,240.937 206.071,240.298C205.752,239.979 205.432,238.701 204.793,236.784C203.835,234.867 203.196,233.589 202.876,232.95C202.557,232.63 202.237,232.63 201.598,232.95C200.959,232.95 200.64,233.269 200.64,233.908C200.64,234.228 201.279,236.145 202.557,239.34C203.515,242.215 204.154,244.132 204.474,244.771C204.793,245.73 204.793,246.688 204.474,247.327C204.474,247.966 204.154,248.605 203.515,249.244C203.196,249.564 202.237,250.203 200.959,250.522C199.362,251.161 198.084,251.481 197.125,251.481C196.486,251.481 195.847,251.161 195.528,250.522C194.889,250.203 194.569,249.564 193.93,248.286C193.611,247.327 192.652,245.41 191.374,242.215C190.416,239.979 189.777,238.062 189.457,236.784C189.138,235.506 189.138,234.547 189.138,233.908C189.138,232.95 189.457,232.311 190.096,231.991C190.416,231.352 191.374,231.033 192.652,230.394L193.291,230.074ZM214.378,249.564L217.573,254.356L206.391,261.385L213.1,272.248L209.266,274.485L199.362,259.149L214.378,249.564ZM235.146,274.804C238.021,277.68 239.938,279.277 240.897,280.555C242.175,282.153 242.494,283.75 241.536,285.348C240.897,286.306 239.619,287.904 237.702,290.14C235.785,292.057 234.507,293.335 233.229,293.974C231.951,294.933 230.353,294.613 228.436,293.335C227.478,292.696 225.241,290.779 222.685,288.223C219.81,285.667 217.893,283.75 216.934,282.472C215.656,280.875 215.337,279.277 216.295,277.68C216.934,276.721 218.212,275.124 220.129,272.887C222.046,270.97 223.324,269.692 224.602,269.053C225.88,268.095 227.478,268.414 229.395,269.692C230.353,270.331 232.59,272.248 235.146,274.804ZM231.951,278.319C230.034,276.402 228.756,275.124 228.117,274.804C227.478,274.485 226.839,274.485 226.519,274.804C225.88,275.124 224.922,275.763 223.644,277.041C223.005,277.999 222.366,278.638 222.046,278.958C221.727,279.916 221.727,280.555 222.366,281.514C223.005,282.153 223.963,283.111 225.88,284.709C227.478,286.306 228.436,287.265 229.075,287.904C229.714,288.223 230.034,288.543 230.673,288.543C230.992,288.543 231.312,288.543 231.631,288.223C232.27,287.904 232.909,287.265 233.548,286.626C234.507,285.667 235.146,285.028 235.465,284.389C235.785,284.07 235.785,283.431 236.104,283.111C236.104,282.792 235.785,282.153 235.465,281.514C235.146,281.194 233.868,279.916 231.951,278.319ZM252.399,296.53L263.581,302.281L263.262,302.601C262.303,304.837 261.345,306.435 260.386,307.713C259.428,309.31 257.83,309.949 255.594,309.31C254.955,308.99 253.677,308.671 252.718,308.352C251.76,307.713 250.162,307.074 247.926,305.796C245.05,304.518 243.133,303.559 242.175,302.601C241.216,301.962 240.258,301.323 239.938,300.364C239.619,300.045 239.619,299.406 239.619,298.767C239.619,298.128 239.619,297.489 239.938,296.53C240.258,295.891 240.897,294.294 242.175,292.377C242.814,290.779 243.453,289.821 243.772,288.862C244.411,288.223 244.731,287.584 245.37,287.265C246.328,286.306 247.606,285.987 249.204,286.626C251.121,286.945 253.677,288.223 257.191,289.821C259.108,291.099 260.706,291.738 261.664,292.377C262.942,293.335 263.901,293.974 264.54,294.613C265.498,295.572 265.818,296.85 265.498,298.128C265.179,298.767 264.859,299.725 264.22,300.684L259.428,298.447C259.747,297.808 259.747,297.489 259.747,297.489L259.747,296.85C259.428,296.53 259.108,296.211 258.15,295.572C257.511,295.252 256.233,294.613 254.635,293.655C253.038,292.696 251.76,292.377 251.121,292.057C250.162,291.738 249.523,291.738 249.204,291.738C248.884,291.738 248.565,292.057 248.245,292.377C247.926,293.016 247.287,293.655 246.648,294.933C246.009,296.211 245.689,297.169 245.37,297.808L245.37,299.086C245.689,299.406 246.009,299.725 246.328,300.045C246.648,300.364 247.926,301.003 250.162,302.281C252.399,303.24 253.677,303.879 254.316,304.198C254.635,304.518 255.274,304.518 255.594,304.518C255.913,304.518 255.913,304.518 256.233,304.198C256.552,304.198 256.872,303.879 256.872,303.559C256.872,303.24 257.191,303.24 257.191,302.92L250.801,299.725L252.399,296.53ZM284.668,317.936L284.029,314.741L272.527,312.185L270.291,314.741L264.22,313.144L277.32,297.808L285.627,299.725L290.739,319.534L284.668,317.936ZM283.071,310.588L281.154,302.92L280.195,302.92L275.083,308.671L283.071,310.588ZM295.851,301.962L305.436,301.323L315.66,313.783L316.299,313.783L315.021,300.364L320.772,300.045L322.05,317.936L312.465,318.575L302.241,306.115L301.602,306.115L302.56,319.534L297.129,319.853L295.851,301.962ZM340.261,294.613L345.373,292.057L348.249,297.489L359.111,292.057L356.236,286.306L361.348,283.75L369.335,299.725L364.543,302.281L361.348,296.53L350.485,301.962L353.36,307.713L348.249,310.588L340.261,294.613ZM363.584,281.833L377.962,268.095L380.837,271.29L370.294,281.194L372.211,283.111L382.115,273.526L384.671,276.402L374.767,285.987L376.684,287.904L387.227,277.999L390.422,280.875L376.045,294.613L363.584,281.833ZM394.895,275.763L380.518,265.219L388.186,254.676C389.783,252.12 391.061,250.522 391.381,250.203C391.7,249.564 392.339,249.244 392.978,248.925C393.617,248.605 394.256,248.605 395.215,248.925C395.854,249.244 396.812,249.564 398.09,250.522C399.049,251.161 400.007,251.8 400.327,252.439C400.646,252.759 400.966,253.398 400.966,254.037C400.966,254.676 400.646,255.315 400.327,256.273C400.966,255.315 401.924,254.995 402.563,254.676C402.883,254.676 403.522,254.995 403.841,254.995C404.48,255.315 405.119,255.954 406.397,256.593L407.675,257.551L404.8,262.024L403.841,261.385C403.202,261.066 402.563,260.427 402.244,260.427C401.605,260.107 401.285,260.107 400.966,260.107C400.646,260.107 400.646,260.427 400.327,260.746C400.007,260.746 399.688,261.385 399.049,262.344L394.576,268.734L398.09,271.29L394.895,275.763ZM390.742,266.178L395.215,259.788C395.854,258.829 396.493,257.871 396.493,257.871C396.812,257.551 396.812,257.232 396.812,257.232C396.812,256.912 396.812,256.593 396.493,256.273C396.493,255.954 396.173,255.954 395.534,255.315C395.215,254.995 394.576,254.995 394.256,254.995C393.937,254.676 393.937,254.676 393.617,254.995C393.298,254.995 393.298,255.315 392.978,255.315C392.978,255.634 392.339,256.273 391.7,257.232L387.227,263.622L390.742,266.178ZM393.937,244.132L401.285,225.601L405.119,227.199L400.007,240.618L402.244,241.576L407.356,228.796L410.87,230.394L406.078,243.174L408.634,244.132L414.065,230.713L417.899,232.311L410.551,250.842L393.937,244.132ZM193.93,151.158C195.528,147.324 196.806,145.087 197.764,143.809C198.723,141.892 200.32,141.253 201.918,141.573C203.196,141.573 205.113,142.212 207.669,143.49C210.225,144.768 212.142,145.726 213.1,146.365C214.378,147.643 215.017,149.241 214.378,151.158C213.739,152.755 212.781,155.311 211.183,158.826C209.586,162.34 208.308,164.896 207.669,166.174C206.391,168.091 204.793,168.73 203.196,168.411C201.918,168.091 200.001,167.452 197.445,166.494C194.889,165.216 192.972,164.257 192.013,163.299C190.735,162.34 190.416,160.743 191.055,158.506C191.374,157.228 192.333,154.672 193.93,151.158ZM198.403,153.075C197.125,155.631 196.486,157.228 196.486,157.867C196.167,158.506 196.486,159.145 196.806,159.784C197.445,160.104 198.403,160.743 200.001,161.382C201.279,162.021 201.918,162.34 202.557,162.34C203.515,162.66 204.154,162.021 204.793,161.062C205.113,160.423 205.752,159.145 206.71,156.909C207.669,154.672 208.308,153.394 208.627,152.755C208.947,152.116 208.947,151.477 208.947,150.838C208.627,150.519 208.308,150.199 207.988,149.88C207.669,149.56 207.03,149.241 206.071,148.921C204.793,148.282 203.835,147.963 203.196,147.643C202.557,147.643 202.237,147.324 201.918,147.643C201.279,147.643 200.959,147.963 200.64,148.602C200.001,149.241 199.362,150.519 198.403,153.075ZM203.196,133.585L209.586,125.917L222.046,129.432L216.934,117.611L223.324,109.943L237.063,122.083L233.548,126.237L223.324,116.972L222.685,117.611L228.436,131.988L225.561,135.502L210.544,131.668L209.905,132.307L220.449,141.253L216.934,145.407L203.196,133.585ZM239.299,121.125L229.714,105.789L240.258,98.76C242.175,97.482 243.453,96.843 244.092,96.524C246.009,95.565 247.287,95.565 248.245,95.885C249.204,96.204 250.482,97.482 251.76,99.719C253.038,101.636 253.677,102.914 253.677,103.872C253.677,104.831 253.677,105.47 253.038,106.109C252.718,106.748 252.079,107.387 251.44,108.026C250.801,108.345 249.523,109.304 247.606,110.582L241.855,114.416L244.092,117.93L239.299,121.125ZM239.299,110.582L245.05,106.748C246.328,106.109 246.967,105.47 246.967,105.47C247.287,105.15 247.287,105.15 247.606,104.831L247.606,103.872C247.606,103.553 247.287,103.233 246.967,102.594C246.648,101.955 246.328,101.636 246.009,101.636C245.689,101.316 245.37,101.316 245.05,101.316C244.731,101.316 244.092,101.955 242.494,102.594L236.743,106.428L239.299,110.582ZM277,102.594L274.444,100.038L262.942,103.872L262.303,107.387L256.552,109.304L259.747,88.856L268.054,86.3L282.751,100.358L277,102.594ZM271.249,96.843L265.818,91.412L264.54,91.731L263.581,99.399L271.249,96.843ZM282.112,82.146L291.697,81.507L302.241,94.607L302.88,94.287L301.602,80.868L307.353,80.229L308.95,98.76L299.046,99.399L288.502,86.3L287.863,86.619L289.141,100.038L283.39,100.677L282.112,82.146ZM312.465,80.868L319.494,82.146L324.286,90.453L330.996,84.063L338.344,85.341L326.203,95.246L325.245,101.636L319.494,100.677L320.772,94.287L312.465,80.868ZM356.875,93.329L364.862,98.441L365.821,115.055L366.14,115.374L373.489,103.872L378.281,107.067L368.377,122.403L360.07,117.291L359.431,100.358L358.792,100.038L351.763,111.54L346.971,108.665L356.875,93.329ZM383.393,139.017L384.671,135.822L376.684,126.876L373.489,127.515L369.335,122.722L389.464,118.25L395.215,124.639L387.547,143.809L383.393,139.017ZM386.588,131.988L389.464,124.639L388.825,123.681L381.157,125.598L386.588,131.988ZM404.8,136.78L408.953,145.726L400.646,155.631L413.426,155.631L417.58,164.896L400.966,172.564L398.729,167.452L411.19,162.021L410.87,161.062L395.534,160.423L393.617,156.27L403.202,144.448L402.883,143.49L390.422,149.241L388.186,144.129L404.8,136.78ZM418.858,171.606L422.372,191.734L418.219,192.373L415.663,177.676L412.787,178.315L415.343,192.054L411.509,192.693L408.953,178.954L406.078,179.593L408.634,194.29L404.48,194.929L400.646,174.801L418.858,171.606Z" style="fill:#fff;fill-rule:nonzero;"/>
    </g>
    <defs>
        <radialGradient id="_Radial1" cx="0" cy="0" r="1" gradientUnits="userSpaceOnUse" gradientTransform="matrix(2.19595e-14,-366.128,358.626,2.24189e-14,300,200.041)"><stop offset="0" style="stop-color:#fff;stop-opacity:1"/><stop offset="1" style="stop-color:#eee;stop-opacity:1"/></radialGradient>
        <linearGradient id="_Linear2" x1="0" y1="0" x2="1" y2="0" gradientUnits="userSpaceOnUse" gradientTransform="matrix(49.2566,59.0264,-59.0264,49.2566,327.015,185.572)"><stop offset="0" style="stop-color:#6ec136;stop-opacity:1"/><stop offset="1" style="stop-color:#d9ff00;stop-opacity:1"/></linearGradient>
        <linearGradient id="_Linear3" x1="0" y1="0" x2="1" y2="0" gradientUnits="userSpaceOnUse" gradientTransform="matrix(67.0501,-45.0074,45.0074,67.0501,269.687,169.326)"><stop offset="0" style="stop-color:#f4841f;stop-opacity:1"/><stop offset="1" style="stop-color:#feda1b;stop-opacity:1"/></linearGradient>
        <linearGradient id="_Linear4" x1="0" y1="0" x2="1" y2="0" gradientUnits="userSpaceOnUse" gradientTransform="matrix(-77.8973,-30.2855,30.2855,-77.8973,298.374,242.403)"><stop offset="0" style="stop-color:#0072b6;stop-opacity:1"/><stop offset="1" style="stop-color:#00d9ff;stop-opacity:1"/></linearGradient>
    </defs>
</svg>
