<?xml version="1.0" encoding="UTF-8" standalone="no"?>
<!DOCTYPE svg PUBLIC "-//W3C//DTD SVG 1.1//EN" "http://www.w3.org/Graphics/SVG/1.1/DTD/svg11.dtd">
<svg width="100%" height="100%" viewBox="0 0 600 400" version="1.1" xmlns="http://www.w3.org/2000/svg" xmlns:xlink="http://www.w3.org/1999/xlink" xml:space="preserve" xmlns:serif="http://www.serif.com/" style="fill-rule:evenodd;clip-rule:evenodd;stroke-linejoin:round;stroke-miterlimit:2;">
    <g id="Layer1">
        <rect x="-1028.23" y="-248.288" width="1712.17" height="4055.19" style="fill:#3d4345;"/>
        <rect x="-13.101" y="-13.059" width="626.202" height="426.201" style="fill:url(#_Radial1);"/>
        <g id="CorelEMF" serif:id="CorelEMF">
        </g>
        <g>
            <g>
                <g>
                    <rect x="600" y="-26.201" width="26.202" height="26.202"/>
                    <rect x="-26.202" y="-26.201" width="26.202" height="26.202"/>
                </g>
                <g>
                    <rect x="600" y="400" width="26.202" height="26.202"/>
                    <rect x="-26.202" y="400" width="26.202" height="26.202"/>
                </g>
                <g opacity="0.37">
                    <rect x="600" y="0.316" width="26.202" height="399.684"/>
                    <rect x="-26.202" y="0.316" width="26.202" height="399.684"/>
                </g>
            </g>
            <g opacity="0.37">
                <path d="M0.06,0.04L0.06,-26.161L599.931,-26.161L599.931,0.04L0.06,0.04Z"/>
                <path d="M0.06,426.239L0.06,400.037L599.931,400.037L599.931,426.239L0.06,426.239Z"/>
            </g>
        </g>
        <g id="CorelEMF1" serif:id="CorelEMF">
        </g>
        <g id="CorelEMF2" serif:id="CorelEMF">
        </g>
        <g id="CorelEMF3" serif:id="CorelEMF">
        </g>
        <path d="M300.046,289.781C349.474,289.781 389.755,249.499 389.755,200.071C389.755,150.644 349.474,110.27 300.046,110.27C250.618,110.27 210.245,150.644 210.245,200.071C210.245,249.499 250.618,289.781 300.046,289.781Z" style="fill:#07653d;"/>
        <path d="M269.004,127.085C270.574,126.438 272.237,125.791 273.993,125.237C273.993,125.145 274.085,125.237 274.177,125.237L274.177,125.514C273.069,127.085 272.422,129.025 272.422,131.15C272.514,133.921 273.716,136.416 275.656,138.171C275.748,138.264 275.84,138.264 275.933,138.171C277.781,136.324 278.889,133.829 278.797,131.057C278.797,128.563 277.781,126.346 276.302,124.683C276.21,124.683 276.21,124.59 276.21,124.498C276.21,124.498 276.302,124.405 276.395,124.405C278.982,123.574 281.569,122.927 284.34,122.373L284.433,122.373C284.525,122.465 284.525,122.465 284.525,122.558C284.802,124.59 285.541,126.53 286.65,128.286L286.742,128.286C289.329,137.617 291.731,150.829 291.639,155.171C291.639,155.263 291.639,155.263 291.546,155.263C291.546,155.356 291.454,155.356 291.362,155.356C289.052,154.339 286.927,153.323 284.987,152.307C284.987,152.214 284.894,152.214 284.894,152.122L284.894,152.03C286.65,149.627 287.666,146.579 287.389,143.437C287.019,139.834 285.172,136.693 282.492,134.568L282.308,134.568C279.998,137.155 278.704,140.481 279.074,144.177C279.166,145.932 279.721,147.595 280.46,148.981C280.552,149.073 280.552,149.166 280.46,149.258L280.183,149.258C273.438,144.177 270.482,137.894 268.819,127.362C268.819,127.27 268.911,127.177 269.004,127.085Z" style="fill:#6cbf00;"/>
        <path d="M254.776,135.03C255.607,134.383 256.439,133.829 257.27,133.367C257.363,133.275 257.455,133.275 257.455,133.367C259.488,134.938 261.89,135.677 264.292,135.4C264.384,135.4 264.477,135.307 264.477,135.215C264.477,133.46 263.922,131.704 262.998,130.226C262.998,130.134 262.906,130.134 262.998,130.041C262.998,130.041 262.998,129.949 263.091,129.949C264.107,129.394 265.216,128.84 266.324,128.286C266.417,128.286 266.417,128.286 266.509,128.378L266.602,128.471C266.417,132.351 266.509,136.231 267.156,138.633C267.248,138.726 267.156,138.818 267.156,138.818C267.064,138.91 267.064,138.91 266.971,138.818C262.444,136.97 258.379,135.862 254.868,135.307C254.776,135.307 254.684,135.215 254.684,135.215C254.684,135.123 254.684,135.03 254.776,135.03Z" style="fill:#6cbf00;"/>
        <path d="M351.599,139.927C352.892,140.943 354.093,142.144 355.294,143.253L355.294,143.437C355.294,143.53 355.202,143.53 355.11,143.622C354.37,143.622 353.539,143.807 352.8,144.084C349.289,145.1 346.61,147.503 345.039,150.551C345.039,150.644 345.039,150.736 345.132,150.736C348.088,152.492 351.599,153.046 355.11,152.03C357.142,151.475 358.898,150.367 360.376,148.981L360.653,148.981C362.408,151.106 364.164,153.415 365.734,155.725L365.734,155.91C365.642,156.002 365.642,156.002 365.549,156.002C354.463,156.187 333.306,156.187 322.958,158.127C322.866,158.22 322.774,158.127 322.681,158.035C322.681,157.942 322.774,157.85 322.774,157.85C331.089,153.877 339.126,148.611 345.963,143.622L346.056,143.622C347.996,142.883 349.843,141.682 351.322,139.927L351.414,139.834C351.506,139.834 351.599,139.834 351.599,139.927Z" style="fill:#bedf3c;"/>
        <path d="M338.664,202.936C341.067,201.919 343.838,202.012 346.333,203.213C348.827,204.414 350.583,206.539 351.322,209.033C351.414,209.126 351.322,209.218 351.229,209.218C348.827,210.234 346.056,210.142 343.561,208.941C341.067,207.74 339.311,205.615 338.572,203.12C338.572,203.028 338.572,202.936 338.664,202.936ZM326.839,197.947C329.333,198.409 331.643,199.794 333.214,202.196C334.692,204.506 335.061,207.278 334.415,209.772C334.415,209.865 334.322,209.865 334.23,209.865C331.735,209.403 329.333,207.924 327.855,205.615C326.284,203.305 325.915,200.533 326.562,198.039C326.562,197.947 326.654,197.854 326.839,197.947ZM310.671,195.914C313.073,195.083 315.845,195.175 318.339,196.468C320.834,197.669 322.497,199.887 323.143,202.381C323.143,202.474 323.143,202.566 323.051,202.658C320.649,203.49 317.877,203.397 315.383,202.104C312.888,200.811 311.225,198.593 310.578,196.099C310.486,196.006 310.578,195.914 310.671,195.914ZM344.393,192.496C345.501,190.094 347.534,188.246 350.213,187.507C352.892,186.675 355.664,187.045 357.881,188.338C357.974,188.338 357.974,188.523 357.974,188.615C356.773,190.925 354.74,192.773 352.061,193.604C349.474,194.343 346.702,193.974 344.485,192.68C344.393,192.68 344.393,192.588 344.393,192.496ZM376.174,177.991C376.359,178.915 376.636,179.746 376.821,180.67L376.821,180.762C376.821,180.855 376.728,180.855 376.636,180.855C373.957,181.04 371.555,182.241 369.892,184.181C369.799,184.273 369.799,184.365 369.892,184.458C371.647,186.306 374.234,187.322 377.006,187.23C377.375,187.23 377.652,187.23 378.022,187.137C378.114,187.137 378.207,187.23 378.207,187.322C378.484,188.893 378.669,190.463 378.853,192.034C378.853,192.126 378.853,192.218 378.761,192.218L378.576,192.218C377.19,191.387 375.712,190.833 374.049,190.555C370.446,189.909 366.935,190.833 364.256,192.958C364.256,192.958 364.164,193.142 364.256,193.142C366.104,196.006 369.06,198.131 372.663,198.686C374.881,199.148 377.006,198.87 378.946,198.224C379.038,198.131 379.131,198.224 379.131,198.224C379.223,198.224 379.223,198.316 379.223,198.409L379.223,200.718C379.223,200.718 379.223,200.811 379.131,200.811C379.131,200.903 379.038,200.903 379.038,200.903C378.946,200.811 378.853,200.811 378.761,200.811C376.082,200.164 373.402,200.811 371.278,202.289C371.185,202.289 371.093,202.474 371.185,202.474C372.479,204.691 374.696,206.446 377.375,207.001C377.837,207.185 378.299,207.185 378.761,207.278L378.853,207.278C378.853,207.37 378.946,207.37 378.946,207.463C378.299,214.299 376.728,220.859 374.511,227.049C374.511,227.141 374.419,227.234 374.326,227.234C361.762,224.924 334.137,227.418 330.072,228.435L329.98,228.435C323.143,226.956 312.611,222.891 310.671,219.935C307.807,210.142 309.285,202.381 306.421,192.588C306.421,192.588 306.421,192.496 306.513,192.403C311.133,189.077 335.246,196.099 353.539,201.827C353.631,201.919 353.631,201.919 353.724,201.919C354.925,204.783 357.235,207.093 360.283,208.386C363.609,209.772 367.212,209.587 370.354,208.202C370.446,208.202 370.446,208.109 370.446,208.017C369.245,204.783 366.843,202.104 363.517,200.718C360.283,199.332 356.773,199.425 353.724,200.718C353.724,200.718 353.631,200.718 353.539,200.626C349.751,198.501 343.931,195.729 338.11,193.142L338.018,193.05C338.018,192.958 338.11,192.865 338.11,192.865C338.664,192.68 339.126,192.403 339.588,192.126C341.99,190.648 343.469,188.338 344.023,185.751C344.023,185.659 343.931,185.567 343.838,185.567C341.344,184.92 338.572,185.197 336.262,186.675C334.599,187.691 333.398,189.077 332.659,190.648C332.567,190.74 332.474,190.833 332.382,190.74C328.04,188.985 324.16,187.599 321.942,187.137C321.942,187.045 321.85,187.045 321.85,186.952C321.85,186.86 321.85,186.768 321.942,186.768C334.692,181.132 363.979,181.871 375.897,177.898C375.897,177.806 375.989,177.898 376.082,177.898L376.174,177.991Z" style="fill:#fff;"/>
        <path d="M308.915,177.714C308.915,174.295 310.301,170.969 312.981,168.475C315.66,165.98 319.171,164.872 322.497,165.149C322.589,165.149 322.681,165.241 322.681,165.333C322.681,168.752 321.295,172.078 318.616,174.572C315.937,177.067 312.519,178.175 309.1,177.898C309.008,177.898 308.915,177.806 308.915,177.714ZM366.289,156.649C367.305,158.127 368.229,159.605 369.06,161.176C369.06,161.268 369.153,161.268 369.06,161.361C369.06,161.453 368.968,161.453 368.968,161.453C364.533,162.008 358.436,163.948 352.523,166.442L352.338,166.442C352.246,166.35 352.246,166.257 352.338,166.165C353.169,164.594 353.631,162.747 353.447,160.899C353.447,160.806 353.354,160.714 353.262,160.714C350.767,160.714 348.18,161.73 346.24,163.763C345.778,164.317 345.316,164.872 344.947,165.426C344.947,165.518 344.855,165.518 344.762,165.518C344.67,165.518 344.67,165.426 344.67,165.333C344.577,165.149 344.485,164.964 344.485,164.779C343.838,162.839 342.637,161.176 341.067,160.067C340.974,159.975 340.974,159.975 340.974,159.883C341.067,159.79 341.067,159.698 341.159,159.698C350.767,158.497 360.191,157.388 366.104,156.557C366.196,156.557 366.289,156.557 366.289,156.649ZM341.99,171.985C338.48,174.203 335.8,176.512 334.877,178.637C334.784,178.73 334.784,178.73 334.692,178.73C332.844,179.007 331.089,179.192 329.518,179.377C329.426,179.377 329.333,179.377 329.241,179.284C329.241,179.192 329.241,179.099 329.333,179.007C331.273,177.806 332.844,176.051 333.768,173.833C335.339,170.507 335.246,166.812 333.953,163.763C333.953,163.671 333.86,163.578 333.768,163.671C330.534,164.687 327.763,166.996 326.192,170.322C324.899,173.279 324.806,176.512 325.73,179.469L325.73,179.561C325.638,179.654 325.638,179.654 325.545,179.654C319.355,180.023 314.274,179.931 306.329,181.04L306.144,181.04C306.144,180.947 306.051,180.947 306.051,180.855C305.867,176.235 302.725,173.926 306.883,166.35L306.975,166.257C309.655,164.132 323.882,161.915 338.387,160.067C338.387,160.067 338.48,160.067 338.48,160.16C338.572,160.16 338.572,160.252 338.572,160.345C337.833,162.285 337.648,164.594 338.387,166.719C339.034,168.844 340.327,170.507 341.99,171.616C342.083,171.708 342.083,171.708 342.083,171.801C342.083,171.893 342.083,171.893 341.99,171.985ZM369.799,162.562C370.631,164.04 371.37,165.518 372.109,167.089C372.109,167.089 372.109,167.181 372.017,167.274C372.017,167.274 371.924,167.366 371.832,167.366C370.908,167.181 369.984,167.089 368.968,167.181C365.365,167.366 362.131,169.121 360.006,171.708L360.006,171.985C362.501,174.295 365.827,175.681 369.522,175.496C371.37,175.404 373.125,174.849 374.604,174.018L374.788,174.018C374.881,174.018 374.881,174.11 374.881,174.11C375.25,175.127 375.62,176.143 375.897,177.159L375.897,177.252C375.805,177.344 375.805,177.344 375.712,177.344C366.935,178.73 348.55,176.882 341.436,177.991C341.344,177.991 341.344,177.898 341.251,177.898L341.251,177.714C343.931,172.632 359.637,167.089 369.522,162.469C369.615,162.377 369.799,162.469 369.799,162.562Z" style="fill:#f0f8b8;"/>
        <path d="M300.046,120.802L300.323,120.802C300.323,120.802 300.416,120.802 300.416,120.895C300.508,120.895 300.508,120.987 300.508,121.08C299.677,123.297 299.584,125.791 300.231,128.286C301.155,131.797 303.465,134.568 306.513,136.139C306.606,136.231 306.698,136.139 306.698,136.046C308.546,133.182 309.193,129.672 308.269,126.161C307.807,124.313 306.975,122.65 305.867,121.357C305.774,121.264 305.774,121.172 305.774,121.172C305.867,121.08 305.959,120.987 305.959,120.987C308.731,121.264 311.318,121.541 313.997,122.003C313.997,122.003 314.089,122.096 314.089,122.188C314.182,122.188 314.089,122.281 314.089,122.373C313.627,122.835 313.258,123.389 312.888,124.036C311.595,126.53 311.41,129.302 312.241,131.704C312.241,131.797 312.334,131.889 312.426,131.797C314.921,131.15 317.138,129.579 318.524,127.085C318.524,127.085 318.616,126.992 318.616,126.9C318.616,126.808 318.709,126.808 318.801,126.808C318.893,126.808 318.986,126.9 318.986,126.992C319.078,128.193 319.355,129.487 319.91,130.595L319.91,130.688C319.355,138.079 319.632,145.932 322.404,151.383C322.404,151.475 322.404,151.568 322.312,151.568C314.089,156.187 305.867,160.437 297.459,162.839C297.459,162.839 297.367,162.839 297.367,162.747C297.275,162.747 297.275,162.747 297.275,162.654C296.258,156.372 294.965,150.367 293.487,144.823C293.487,144.731 293.487,144.639 293.579,144.546C295.704,143.253 297.367,141.22 298.014,138.541C298.66,135.862 298.106,133.182 296.72,131.057C296.628,130.965 296.535,130.873 296.443,130.965C294.226,132.258 292.47,134.383 291.824,137.063C291.731,137.155 291.731,137.34 291.731,137.432C291.639,137.525 291.639,137.617 291.546,137.617C291.454,137.617 291.362,137.525 291.362,137.432C290.345,134.199 289.237,131.335 288.22,128.748C288.22,128.655 288.22,128.563 288.313,128.563C290.53,126.715 292.101,124.221 292.748,121.264C292.748,121.172 292.748,121.172 292.84,121.172C295.242,120.895 297.644,120.802 300.046,120.802ZM312.703,134.568C315.29,136.786 316.953,140.019 317.046,143.622C317.138,147.318 315.66,150.644 313.258,153.046L312.981,153.046C310.486,150.829 308.823,147.595 308.731,143.899C308.546,140.296 310.024,136.97 312.426,134.568C312.519,134.476 312.611,134.476 312.703,134.568ZM305.22,157.942C302.725,157.388 300.416,155.818 299.03,153.415C297.644,151.106 297.367,148.334 298.106,145.84C298.106,145.747 298.198,145.655 298.291,145.655C300.785,146.209 303.095,147.78 304.481,150.182C305.959,152.584 306.236,155.356 305.497,157.85C305.497,157.942 305.405,157.942 305.22,157.942ZM327.116,125.514C329.795,126.53 332.382,127.639 334.969,128.933C335.061,128.933 335.061,129.025 335.061,129.117C334.877,130.041 334.784,130.873 334.877,131.797C335.061,134.568 336.355,137.063 338.295,138.726C338.387,138.726 338.48,138.726 338.572,138.633C340.05,137.063 341.067,135.03 341.251,132.72C341.251,132.628 341.251,132.536 341.344,132.536L341.529,132.536C342.637,133.182 343.653,133.921 344.67,134.568C344.762,134.661 344.762,134.661 344.762,134.753L344.762,134.845C343.007,137.34 342.36,140.296 342.545,143.068C342.545,143.16 342.545,143.253 342.452,143.253C337.648,145.84 332.752,148.242 328.964,149.166C328.871,149.258 328.779,149.166 328.779,149.166C328.409,148.888 328.132,148.519 327.855,148.149C327.763,148.149 327.763,148.149 327.763,148.057C327.763,147.964 327.763,147.964 327.855,147.964C329.98,146.117 331.643,143.622 332.197,140.666C332.936,137.063 332.105,133.552 330.072,130.873C330.072,130.78 329.888,130.688 329.795,130.78C326.931,132.536 324.806,135.492 324.067,139.003C324.067,139.188 323.975,139.28 323.975,139.465C323.975,139.557 323.882,139.65 323.79,139.65C323.698,139.65 323.605,139.557 323.605,139.465C322.866,136.601 322.497,133.552 322.219,130.595C322.219,130.503 322.312,130.411 322.312,130.411C324.16,129.302 325.73,127.639 326.839,125.607C326.931,125.607 327.024,125.514 327.116,125.514Z" style="fill:#a5c136;"/>
        <path d="M287.019,167.274C284.433,167.458 281.846,166.535 279.813,164.594C277.873,162.654 276.857,159.975 276.949,157.48C276.949,157.296 277.041,157.296 277.134,157.296C279.721,157.111 282.308,158.035 284.34,159.975C286.28,161.915 287.297,164.502 287.204,167.089C287.204,167.181 287.112,167.274 287.019,167.274ZM272.699,174.572C270.205,175.311 267.433,175.127 265.031,173.741C262.629,172.355 261.058,170.138 260.412,167.551C260.412,167.458 260.412,167.366 260.504,167.366C262.998,166.627 265.77,166.812 268.172,168.198C270.574,169.583 272.237,171.801 272.792,174.295C272.792,174.388 272.792,174.48 272.699,174.572ZM239.255,149.258C240.641,147.595 242.119,145.932 243.597,144.361L243.782,144.361C243.874,144.361 243.874,144.361 243.966,144.454C244.798,146.763 246.276,148.888 248.401,150.367C251.358,152.584 254.868,153.231 258.194,152.584C258.287,152.492 258.379,152.399 258.379,152.307C258.01,148.981 256.254,145.84 253.298,143.622C251.45,142.329 249.417,141.59 247.292,141.313C247.2,141.313 247.108,141.313 247.108,141.22C247.108,141.128 247.108,141.035 247.2,141.035C248.309,140.019 249.417,139.003 250.618,138.079L250.803,138.079C257.27,138.818 263.645,140.851 268.172,142.514C268.265,142.514 268.265,142.514 268.265,142.606C273.808,151.198 282.862,156.095 291.546,159.698C291.639,159.698 291.639,159.79 291.639,159.883C292.101,164.594 289.699,169.306 290.068,174.018C290.068,174.11 290.068,174.11 289.976,174.203L289.791,174.203C284.248,170.877 276.949,165.703 270.851,161.73C270.851,161.638 270.759,161.546 270.851,161.453C271.775,158.404 271.498,154.986 269.928,151.937C268.172,148.704 265.308,146.579 261.982,145.655C261.89,145.655 261.797,145.655 261.797,145.747C260.689,148.981 260.874,152.584 262.537,155.818C263.83,158.312 265.955,160.252 268.265,161.361L268.357,161.361C273.808,169.399 282.4,176.512 288.775,181.501C288.867,181.594 288.867,181.594 288.867,181.686C286.835,187.691 287.481,188.431 287.204,194.343C287.204,194.343 287.204,194.436 287.112,194.436C287.019,194.528 287.019,194.528 286.927,194.436C284.894,193.142 283.047,192.311 280.829,191.572L280.737,191.479L280.737,191.295C281.661,188.8 281.753,185.936 280.829,183.164C279.721,179.746 277.226,177.067 274.177,175.681C274.085,175.681 273.993,175.681 273.9,175.773C272.237,178.73 271.775,182.333 272.976,185.751C273.346,187.137 273.993,188.338 274.732,189.354C274.824,189.447 274.824,189.539 274.824,189.539C274.732,189.632 274.639,189.632 274.547,189.632C273.346,189.262 272.053,188.893 270.574,188.431C270.482,188.431 270.482,188.338 270.39,188.338C267.433,182.61 262.352,175.681 256.808,168.844C256.716,168.752 256.716,168.659 256.808,168.659C258.01,166.442 258.379,163.763 257.64,161.176C256.901,158.589 255.053,156.464 252.743,155.263C252.651,155.263 252.559,155.263 252.559,155.356C251.358,157.203 250.896,159.513 251.265,161.823C251.265,161.823 251.265,161.915 251.173,162.008C251.08,162.008 250.988,162.008 250.896,161.915C246.738,157.203 242.673,152.861 239.255,149.535C239.162,149.443 239.162,149.35 239.255,149.258Z" style="fill:#bedf3c;"/>
        <path d="M228.168,166.627C229.554,163.671 231.032,160.899 232.695,158.22C232.695,158.22 232.788,158.127 232.88,158.127C232.972,158.127 232.972,158.22 233.065,158.22C233.527,159.236 234.081,160.16 234.82,160.991C237.222,163.763 240.548,165.241 243.966,165.333C244.059,165.333 244.151,165.241 244.151,165.149C244.521,161.823 243.505,158.312 241.102,155.54C239.901,154.155 238.516,153.138 236.945,152.399C236.945,152.399 236.945,152.307 236.853,152.307C236.853,152.214 236.853,152.122 236.945,152.122C237.499,151.383 238.054,150.644 238.608,149.997C238.608,149.905 238.7,149.905 238.793,149.905C238.793,149.905 238.885,149.905 238.885,149.997C244.89,157.203 253.944,168.844 256.531,172.909C256.624,173.002 256.624,173.094 256.531,173.094C256.531,173.187 256.439,173.187 256.347,173.187C250.988,171.062 237.776,168.382 228.353,166.904C228.26,166.812 228.168,166.812 228.168,166.812L228.168,166.627Z" style="fill:#d5ff6a;"/>
        <path d="M246.553,183.996C244.428,185.382 241.657,185.844 238.978,185.197C236.298,184.458 234.173,182.702 232.972,180.393C232.88,180.3 232.972,180.208 232.972,180.116C235.19,178.822 237.961,178.268 240.641,179.007C243.32,179.746 245.445,181.501 246.646,183.719C246.646,183.811 246.646,183.996 246.553,183.996ZM221.516,189.539C221.886,186.121 222.625,182.795 223.456,179.561C223.456,179.469 223.549,179.469 223.641,179.469C226.228,179.746 228.907,179.284 231.402,177.898C234.45,176.235 236.483,173.371 237.315,170.23C237.315,170.138 237.407,170.138 237.499,170.138C246.276,172.447 255.238,175.034 258.656,176.605L258.749,176.697C259.303,177.621 259.857,178.453 260.319,179.377C260.412,179.469 260.412,179.561 260.319,179.561C260.227,179.654 260.134,179.654 260.042,179.654C258.564,178.637 256.808,178.083 254.961,178.083C252.189,178.083 249.602,179.284 247.847,181.224L247.847,181.409C249.602,183.349 252.189,184.458 254.961,184.458C257.455,184.458 259.672,183.534 261.428,181.963C261.52,181.963 261.52,181.871 261.613,181.963C261.613,181.963 261.705,181.963 261.705,182.056C262.721,183.996 263.46,186.028 264.107,188.061L264.107,188.246C264.015,188.338 264.015,188.338 263.922,188.338C248.494,185.567 233.249,188.246 221.701,189.724L221.516,189.724C221.516,189.632 221.424,189.632 221.516,189.539ZM226.32,170.784C226.782,169.768 227.152,168.752 227.614,167.736C227.706,167.736 227.799,167.643 227.891,167.643C229.184,168.013 230.663,168.382 232.141,168.752C232.233,168.752 232.233,168.844 232.233,168.937C232.233,169.029 232.141,169.121 232.048,169.121C230.478,169.306 228.815,169.768 227.244,170.692C227.059,170.784 226.875,170.877 226.597,171.062L226.413,171.062C226.32,170.969 226.32,170.877 226.32,170.784Z" style="fill:#f0f8b8;"/>
        <path d="M277.041,204.506C274.824,207.001 271.498,208.571 267.895,208.571C264.2,208.571 260.966,207.001 258.656,204.506C258.564,204.506 258.564,204.321 258.656,204.321C260.966,201.827 264.2,200.256 267.895,200.256C271.498,200.256 274.824,201.827 277.041,204.321C277.134,204.321 277.134,204.506 277.041,204.506ZM246.276,194.251C245.352,197.485 243.043,200.349 239.809,201.919C236.483,203.582 232.88,203.582 229.739,202.381C229.646,202.381 229.554,202.289 229.646,202.196C230.57,198.963 232.788,196.099 236.113,194.436C239.347,192.865 243.043,192.773 246.184,194.066C246.276,194.066 246.276,194.159 246.276,194.251ZM281.569,221.413C272.053,224.647 241.287,223.723 226.597,229.451C226.505,229.543 226.413,229.451 226.413,229.359C224.657,225.016 223.272,220.397 222.348,215.685L222.348,215.5C222.994,214.946 223.549,214.207 224.103,213.56C226.136,210.511 226.69,206.908 225.951,203.582C225.951,203.49 225.858,203.49 225.766,203.49C224.103,203.675 222.625,204.229 221.239,205.06L221.054,205.06C220.962,205.06 220.962,204.968 220.962,204.876C220.869,203.397 220.777,201.827 220.777,200.256C220.777,200.164 220.777,200.071 220.869,200.071C221.331,199.794 221.793,199.425 222.163,199.148C224.75,197.023 226.32,194.066 226.69,190.925C226.69,190.833 226.782,190.74 226.875,190.74C235.559,191.11 244.521,191.849 252.836,193.142C252.928,193.142 252.928,193.235 252.928,193.327C252.928,193.42 252.928,193.512 252.836,193.512C249.695,194.436 247.2,196.561 245.629,199.24C245.629,199.332 245.629,199.425 245.722,199.517C248.494,201.457 252.097,202.196 255.607,201.365C259.118,200.533 261.982,198.316 263.645,195.452C263.645,195.36 263.738,195.36 263.83,195.36C278.335,199.055 288.22,205.338 285.634,215.685C284.802,218.642 284.433,220.397 281.569,221.413Z" style="fill:#fff;"/>
        <path d="M331.551,251.439C316.584,251.624 317.692,249.592 315.66,239.152L315.66,238.967L315.845,238.967C318.431,238.69 320.649,238.505 322.681,238.228C322.774,238.135 322.774,238.228 322.866,238.32C325.268,243.217 328.317,247.374 331.735,251.162C331.735,251.162 331.828,251.255 331.735,251.347C331.735,251.439 331.643,251.439 331.551,251.439Z" style="fill:#de4c2a;"/>
        <path d="M309.932,266.591C310.394,263.635 309.655,254.119 309.377,248.853C309.377,248.76 309.47,248.668 309.562,248.668C309.655,248.668 309.747,248.668 309.747,248.76C315.475,256.336 327.486,256.983 335.985,259.015C336.078,259.015 336.078,259.108 336.17,259.108L336.17,259.292C334.877,262.896 334.877,266.314 335.523,269.732L335.523,269.825C335.431,269.917 335.431,269.917 335.339,269.917C325.915,270.841 316.399,268.716 310.117,266.776C310.024,266.776 309.932,266.683 309.932,266.591Z" style="fill:#df9e2e;"/>
        <path d="M305.589,262.249C305.774,262.156 306.051,262.064 306.236,261.972L306.421,261.972C306.421,262.064 306.513,262.064 306.513,262.156C306.606,262.618 306.791,263.635 306.975,264.466C306.975,264.559 306.883,264.651 306.791,264.651C306.698,264.651 306.606,264.651 306.606,264.559C306.236,263.819 305.682,262.988 305.497,262.526C305.405,262.526 305.405,262.434 305.497,262.434C305.497,262.341 305.497,262.341 305.589,262.249Z" style="fill:#df9e2e;"/>
        <path d="M293.764,254.026C296.443,251.532 299.584,246.358 301.986,244.325C301.986,244.233 302.079,244.233 302.171,244.233C302.263,244.325 302.263,244.325 302.263,244.418C302.818,248.391 305.22,254.581 305.682,258.369C305.682,258.461 305.682,258.553 305.589,258.553C304.943,259.015 304.296,259.385 303.742,259.754L303.465,259.754C300.693,257.537 297.367,255.782 293.856,254.303C293.764,254.303 293.671,254.211 293.671,254.211C293.671,254.119 293.671,254.026 293.764,254.026Z" style="fill:#df9e2e;"/>
        <path d="M301.34,238.967C299.399,240.907 295.334,245.711 292.84,248.668L292.563,248.668C292.47,248.575 292.47,248.483 292.563,248.391C294.226,244.787 296.997,237.674 297.736,234.994C297.736,234.902 297.829,234.902 297.829,234.809C297.921,234.809 298.014,234.809 298.014,234.902C298.845,235.641 300.508,238.043 301.247,238.69C301.34,238.782 301.34,238.782 301.34,238.875L301.34,238.967Z" style="fill:#de4c2a;"/>
        <path d="M278.15,246.358C279.074,244.325 279.906,242.293 280.645,240.168L280.737,240.076L281.476,239.706C281.569,239.614 281.569,239.706 281.661,239.706C281.753,239.706 281.753,239.798 281.753,239.891C281.661,241.646 281.384,243.494 278.427,246.543C278.427,246.635 278.335,246.635 278.243,246.543C278.15,246.543 278.15,246.45 278.15,246.358Z" style="fill:#de4c2a;"/>
        <path d="M332.197,232.869C321.85,233.793 310.671,239.244 311.779,226.679C311.779,226.679 311.779,226.587 311.872,226.587C311.872,226.587 311.964,226.495 311.964,226.587C314.182,227.141 328.04,231.299 332.197,232.5C332.29,232.5 332.29,232.592 332.29,232.685C332.29,232.777 332.29,232.777 332.197,232.869Z" style="fill:#fab926;"/>
        <path d="M371.739,233.701C370.077,237.304 368.136,240.722 365.919,244.048C365.827,244.141 365.827,244.141 365.734,244.141C356.68,243.864 351.322,237.581 348.273,233.793L348.273,233.608C348.273,233.516 348.365,233.516 348.458,233.516C356.588,232.962 363.425,233.424 371.555,233.424C371.647,233.424 371.739,233.516 371.739,233.516L371.739,233.701Z" style="fill:#f9b37b;"/>
        <path d="M374.049,228.342C373.587,229.359 373.218,230.375 372.756,231.391C372.756,231.484 372.663,231.576 372.571,231.576C362.223,231.576 351.876,230.005 341.529,230.375C339.588,230.098 339.126,229.913 337.741,229.636C337.648,229.636 337.556,229.543 337.556,229.451C337.556,229.359 337.648,229.359 337.741,229.266C343.099,228.158 363.055,227.326 373.864,228.065C373.957,228.065 373.957,228.158 374.049,228.158L374.049,228.342Z" style="fill:#fab926;"/>
        <path d="M230.755,238.505C229.369,236.103 228.168,233.608 227.059,231.022L227.059,230.929C227.152,230.837 227.152,230.837 227.244,230.744C243.135,227.234 271.683,227.88 280.183,228.527C280.367,228.527 280.367,228.619 280.367,228.712C280.367,228.804 280.367,228.897 280.275,228.897C274.639,229.821 270.02,232.777 263.553,233.147C245.629,234.255 237.037,236.38 231.032,238.597C230.94,238.69 230.847,238.597 230.755,238.505Z" style="fill:#fab926;"/>
        <path d="M236.391,247.282C234.728,245.065 233.249,242.755 231.864,240.353C231.771,240.353 231.771,240.26 231.771,240.168C231.864,240.168 231.864,240.076 231.956,240.076C236.391,239.614 240.918,239.521 245.814,238.875C245.907,238.875 245.907,238.875 245.999,238.967C245.999,239.059 245.999,239.152 245.907,239.244C243.689,241.739 240.825,244.88 236.668,247.374C236.575,247.374 236.483,247.374 236.391,247.282Z" style="fill:#de4c2a;"/>
        <path d="M237.407,248.575C237.315,248.575 237.407,248.483 237.407,248.483C237.407,248.391 237.407,248.298 237.499,248.298C243.412,245.434 249.787,241.369 252.743,238.32C252.743,238.228 252.836,238.228 252.836,238.228C262.721,237.212 267.895,237.489 276.025,237.027C276.118,236.934 276.21,237.027 276.21,237.119C276.21,237.212 276.21,237.304 276.118,237.304C273.716,237.674 247.57,248.298 237.407,248.575Z" style="fill:#de4c2a;"/>
        <path d="M242.211,254.211C241.01,252.918 239.901,251.624 238.793,250.331C238.7,250.238 238.7,250.146 238.793,250.146C238.793,250.054 238.793,250.054 238.885,249.961C248.955,248.575 259.211,247.005 274.547,241.369L274.732,241.369L274.732,241.554C274.362,244.233 273.716,246.635 272.607,249.314C272.607,249.407 272.607,249.407 272.514,249.499C265.216,251.347 252.559,252.918 242.303,254.211L242.211,254.211Z" style="fill:#de4c2a;"/>
        <path d="M246.646,258.553C245.629,257.629 244.613,256.706 243.689,255.689C243.597,255.689 243.597,255.597 243.597,255.504C243.689,255.412 243.689,255.412 243.782,255.412C248.032,255.412 252.281,255.227 257.825,254.396C257.917,254.396 258.01,254.396 258.102,254.488C258.102,254.581 258.01,254.673 257.917,254.765C253.76,256.059 250.156,257.352 246.831,258.646C246.738,258.646 246.646,258.646 246.646,258.553Z" style="fill:#fbcb40;"/>
        <path d="M253.298,264.004C252.189,263.265 251.08,262.434 250.064,261.51C249.972,261.51 249.972,261.417 249.972,261.325C249.972,261.233 250.064,261.233 250.156,261.233C250.803,261.048 251.542,260.955 252.189,260.771C252.281,260.771 252.374,260.771 252.374,260.863C252.928,261.879 253.39,262.803 253.575,263.819C253.667,263.912 253.575,264.004 253.575,264.004C253.482,264.097 253.39,264.097 253.298,264.004Z" style="fill:#fbcb40;"/>
        <path d="M284.433,277.77C274.455,275.738 265.123,271.857 256.901,266.499C256.901,266.499 256.808,266.406 256.808,266.314C257.178,264.189 257.27,262.064 256.901,260.031C256.901,259.939 256.901,259.847 256.993,259.847C261.243,258.461 264.754,257.167 269.743,254.95L270.02,254.858L270.205,254.858L270.205,255.135C268.819,258.276 267.156,262.618 264.477,266.961C264.477,267.053 264.477,267.145 264.569,267.145C264.661,267.238 264.754,267.238 264.754,267.145C268.265,262.988 271.591,258.461 274.455,253.472C274.547,253.472 274.547,253.38 274.547,253.38C278.15,252.271 284.248,247.467 287.297,242.94C287.389,242.847 287.481,242.847 287.574,242.847C287.666,242.847 287.666,242.94 287.666,243.032C285.449,255.782 283.786,265.113 276.118,271.303C276.025,271.395 276.025,271.488 276.025,271.58C276.118,271.672 276.21,271.672 276.302,271.672C284.063,269.086 287.389,262.618 288.405,258.738L288.498,258.646C289.144,258.091 289.883,257.445 290.53,256.798L290.715,256.798C294.503,257.999 297.552,259.847 299.769,262.064C299.861,262.064 299.861,262.156 299.861,262.249L299.769,262.341C294.318,266.129 289.329,270.749 286.65,276.569C286.65,276.569 286.557,276.569 286.557,276.661C285.911,276.939 285.264,277.308 284.525,277.678C284.525,277.77 284.433,277.77 284.433,277.77Z" style="fill:#fbcb40;"/>
        <path d="M303.926,279.156C302.633,279.248 301.34,279.248 300.046,279.248C296.905,279.248 293.949,279.063 290.9,278.786L290.807,278.694C290.807,278.602 290.715,278.509 290.807,278.509C292.748,273.335 296.351,268.439 301.709,264.651C301.802,264.651 301.894,264.651 301.986,264.743C305.589,268.624 305.867,273.058 304.111,279.063C304.111,279.156 304.019,279.156 303.926,279.156Z" style="fill:#f48031;"/>
        <path d="M333.676,271.765C325.361,275.645 316.214,278.232 306.606,278.971C306.513,278.971 306.421,278.971 306.421,278.879C306.329,278.879 306.329,278.786 306.421,278.694C307.899,275.46 308.638,271.765 309.285,269.455C309.285,269.455 309.285,269.363 309.377,269.363L309.562,269.363C319.448,272.873 327.393,272.781 333.583,271.395C333.676,271.395 333.768,271.395 333.86,271.488C333.86,271.58 333.768,271.672 333.676,271.765Z" style="fill:#f48031;"/>
        <path d="M351.045,260.678C347.257,263.819 343.099,266.683 338.757,269.178L338.572,269.178C338.48,269.178 338.48,269.086 338.48,268.993C338.48,265.76 338.942,262.711 340.605,259.847C340.605,259.754 340.697,259.754 340.789,259.754C344.115,259.754 347.534,259.939 350.952,260.309C351.045,260.309 351.045,260.401 351.137,260.401C351.137,260.493 351.137,260.586 351.045,260.678Z" style="fill:#df9e2e;"/>
        <path d="M365.088,245.249C361.762,250.054 357.974,254.396 353.724,258.276C353.631,258.369 353.631,258.369 353.539,258.369C348.365,256.613 342.73,255.135 334.784,253.934L334.599,253.749C343.931,253.657 349.566,252.086 356.865,250.608C356.957,250.608 357.05,250.516 356.957,250.423C356.957,250.331 356.865,250.238 356.773,250.238C350.121,250.608 340.974,251.255 333.306,251.439C333.214,251.439 333.121,251.347 333.121,251.347C331.366,248.206 330.35,245.157 329.333,242.755C329.333,242.755 329.333,242.662 329.426,242.57C329.426,242.57 329.518,242.478 329.61,242.57C334.507,244.418 338.572,245.249 343.746,245.711C343.838,245.711 343.931,245.711 344.023,245.619C344.023,245.434 343.931,245.342 343.838,245.342C337.279,243.864 333.029,241.831 328.317,239.891L328.225,239.798C327.947,239.059 327.67,238.413 327.393,237.674L327.393,237.489C327.486,237.489 327.486,237.396 327.578,237.396C332.197,236.657 336.54,235.826 343.007,235.271C343.099,235.271 343.192,235.271 343.192,235.364C347.072,239.798 359.267,245.434 364.903,244.972C364.995,244.972 364.995,244.972 365.088,245.065L365.088,245.249Z" style="fill:#de4c2a;"/>
        <path d="M283.416,225.571C290.253,224.832 293.671,203.582 276.764,194.805C279.998,194.436 289.976,199.24 293.856,202.566C294.133,193.974 295.796,185.382 298.106,176.697C307.345,201.457 303.187,220.951 309.747,240.26C303.649,235.456 298.66,230.467 295.057,225.293C294.595,231.853 293.209,238.413 290.992,244.972C289.606,240.353 288.498,235.641 288.59,230.652C283.509,231.853 279.813,233.424 276.487,235.179C279.166,232.13 283.693,229.174 288.775,226.217C287.019,226.033 285.172,225.755 283.416,225.571Z" style="fill:#3d903f;"/>
        <path d="M380.978,189.354C381.902,189.816 382.918,190.001 383.842,189.909C384.859,189.724 385.875,189.262 386.614,188.615C385.69,188.153 384.674,188.061 383.658,188.153C382.641,188.246 381.717,188.708 380.978,189.354ZM224.565,231.299C223.549,231.114 222.532,231.206 221.609,231.576C220.685,231.945 219.946,232.592 219.391,233.424C220.315,233.608 221.331,233.516 222.255,233.147C223.272,232.777 224.011,232.13 224.565,231.299ZM375.435,168.752C376.451,169.029 377.468,168.937 378.391,168.475C379.315,168.105 380.147,167.458 380.701,166.627C379.685,166.442 378.669,166.535 377.745,166.904C376.821,167.274 375.989,167.92 375.435,168.752ZM235.19,249.776C234.266,249.776 233.249,250.146 232.418,250.793C231.679,251.439 231.032,252.271 230.755,253.195C231.771,253.102 232.695,252.733 233.527,252.178C234.358,251.532 234.912,250.7 235.19,249.776ZM364.81,150.367C365.827,150.274 366.751,149.905 367.582,149.258C368.414,148.704 368.968,147.872 369.245,146.856C368.321,146.948 367.305,147.318 366.473,147.964C365.734,148.519 365.088,149.35 364.81,150.367ZM250.341,264.836C249.325,265.113 248.494,265.76 247.939,266.499C247.292,267.33 246.923,268.346 246.831,269.27C247.847,268.993 248.678,268.439 249.233,267.607C249.879,266.776 250.249,265.852 250.341,264.836ZM349.751,135.215C350.675,134.938 351.506,134.383 352.153,133.552C352.708,132.72 353.077,131.797 353.169,130.78C352.246,131.057 351.414,131.704 350.767,132.443C350.121,133.275 349.751,134.291 349.751,135.215ZM268.727,275.46C267.895,276.015 267.248,276.846 266.879,277.77C266.509,278.694 266.417,279.71 266.602,280.726C267.433,280.172 268.08,279.341 268.449,278.417C268.911,277.493 269.004,276.477 268.727,275.46ZM331.273,124.59C332.105,124.036 332.752,123.297 333.121,122.281C333.491,121.357 333.583,120.34 333.398,119.417C332.567,119.971 331.92,120.71 331.551,121.634C331.181,122.558 331.089,123.574 331.273,124.59ZM289.329,281.004C288.682,281.743 288.22,282.667 288.128,283.683C288.036,284.699 288.22,285.715 288.59,286.639C289.237,285.808 289.699,284.884 289.883,283.868C289.976,282.944 289.791,281.928 289.329,281.004ZM310.671,119.047C311.318,118.308 311.779,117.384 311.872,116.368C312.057,115.351 311.872,114.335 311.41,113.504C310.763,114.243 310.301,115.167 310.209,116.183C310.024,117.199 310.209,118.215 310.671,119.047ZM310.671,281.004C310.209,281.928 310.024,282.944 310.209,283.868C310.301,284.884 310.763,285.808 311.41,286.639C311.872,285.715 312.057,284.699 311.872,283.683C311.779,282.667 311.318,281.743 310.671,281.004ZM289.329,119.047C289.791,118.215 289.976,117.199 289.883,116.183C289.699,115.167 289.237,114.243 288.59,113.504C288.128,114.335 288.036,115.351 288.128,116.368C288.22,117.384 288.682,118.308 289.329,119.047ZM331.273,275.46C331.089,276.477 331.181,277.493 331.551,278.417C331.92,279.341 332.567,280.172 333.398,280.726C333.583,279.71 333.491,278.694 333.121,277.77C332.752,276.846 332.105,276.015 331.273,275.46ZM268.727,124.59C269.004,123.574 268.911,122.558 268.449,121.634C268.08,120.71 267.433,119.971 266.602,119.417C266.417,120.34 266.509,121.357 266.879,122.281C267.248,123.297 267.895,124.036 268.727,124.59ZM349.751,264.836C349.751,265.852 350.121,266.776 350.767,267.607C351.414,268.439 352.246,268.993 353.169,269.27C353.077,268.346 352.708,267.33 352.153,266.499C351.506,265.76 350.675,265.113 349.751,264.836ZM246.831,130.78C246.923,131.797 247.292,132.72 247.939,133.552C248.494,134.383 249.325,134.938 250.341,135.215C250.249,134.291 249.879,133.275 249.233,132.443C248.678,131.704 247.847,131.057 246.831,130.78ZM364.81,249.776C365.088,250.7 365.734,251.532 366.473,252.178C367.305,252.733 368.321,253.102 369.245,253.195C368.968,252.271 368.414,251.439 367.582,250.793C366.751,250.146 365.827,249.776 364.81,249.776ZM235.19,150.367C234.912,149.35 234.358,148.519 233.527,147.964C232.695,147.318 231.771,146.948 230.755,146.856C231.032,147.872 231.679,148.704 232.418,149.258C233.249,149.905 234.266,150.274 235.19,150.367ZM375.435,231.299C375.989,232.13 376.821,232.777 377.745,233.147C378.669,233.516 379.685,233.608 380.701,233.424C380.147,232.592 379.315,231.945 378.391,231.576C377.468,231.206 376.451,231.114 375.435,231.299ZM224.565,168.752C224.011,167.92 223.272,167.274 222.255,166.904C221.331,166.535 220.315,166.442 219.391,166.627C219.946,167.458 220.685,168.105 221.609,168.475C222.532,168.937 223.549,169.029 224.565,168.752ZM380.978,210.696C381.717,211.343 382.641,211.805 383.658,211.897C384.674,212.082 385.69,211.897 386.614,211.435C385.783,210.789 384.859,210.327 383.842,210.234C382.918,210.049 381.902,210.234 380.978,210.696ZM219.022,189.354C218.283,188.708 217.359,188.246 216.342,188.153C215.326,188.061 214.31,188.153 213.478,188.615C214.217,189.262 215.141,189.724 216.158,189.909C217.174,190.001 218.19,189.816 219.022,189.354ZM219.022,210.696C218.19,210.234 217.174,210.049 216.158,210.234C215.141,210.327 214.217,210.789 213.478,211.435C214.31,211.897 215.326,212.082 216.342,211.897C217.359,211.805 218.283,211.343 219.022,210.696Z" style="fill:#f79f2a;"/>
        <path d="M378.853,178.915C379.87,179.192 380.886,179.284 381.81,179.007C382.826,178.73 383.658,178.175 384.304,177.436C383.38,177.159 382.364,177.067 381.44,177.344C380.424,177.621 379.592,178.175 378.853,178.915ZM229.277,240.907C228.26,240.815 227.337,241 226.413,241.554C225.489,242.016 224.842,242.755 224.38,243.679C225.396,243.771 226.413,243.494 227.244,243.032C228.168,242.478 228.815,241.739 229.277,240.907ZM370.723,159.236C371.739,159.236 372.756,159.051 373.587,158.589C374.511,158.035 375.158,157.296 375.62,156.372C374.604,156.279 373.587,156.557 372.756,157.019C371.832,157.573 371.185,158.312 370.723,159.236ZM242.303,257.814C241.287,257.999 240.363,258.461 239.624,259.2C238.978,259.847 238.423,260.771 238.238,261.787C239.255,261.602 240.179,261.14 240.918,260.401C241.564,259.662 242.119,258.738 242.303,257.814ZM357.789,142.329C358.713,142.144 359.637,141.59 360.376,140.943C361.115,140.204 361.577,139.28 361.762,138.264C360.745,138.449 359.821,139.003 359.175,139.65C358.436,140.389 357.974,141.313 357.789,142.329ZM259.211,270.749C258.287,271.21 257.548,271.857 256.993,272.781C256.531,273.613 256.254,274.629 256.347,275.645C257.27,275.183 258.01,274.536 258.564,273.613C259.026,272.781 259.211,271.765 259.211,270.749ZM340.882,129.302C341.713,128.84 342.452,128.193 343.007,127.27C343.469,126.438 343.746,125.422 343.653,124.405C342.73,124.867 341.99,125.514 341.529,126.438C340.974,127.362 340.789,128.286 340.882,129.302ZM278.889,278.879C278.15,279.525 277.596,280.449 277.319,281.466C277.041,282.389 277.134,283.406 277.411,284.33C278.15,283.683 278.704,282.851 278.982,281.835C279.259,280.911 279.166,279.895 278.889,278.879ZM321.111,121.172C321.942,120.525 322.404,119.601 322.681,118.677C322.958,117.661 322.958,116.645 322.589,115.721C321.85,116.368 321.295,117.199 321.018,118.215C320.741,119.232 320.834,120.248 321.111,121.172ZM300.046,281.743C299.492,282.482 299.122,283.498 299.122,284.514C299.122,285.531 299.492,286.547 300.046,287.378C300.601,286.547 300.878,285.531 300.878,284.514C300.878,283.498 300.601,282.574 300.046,281.743ZM300.046,118.4C300.601,117.569 300.878,116.552 300.878,115.536C300.878,114.52 300.601,113.596 300.046,112.765C299.492,113.596 299.122,114.52 299.122,115.536C299.122,116.552 299.492,117.569 300.046,118.4ZM321.111,278.879C320.834,279.895 320.741,280.911 321.018,281.835C321.295,282.851 321.85,283.683 322.589,284.33C322.958,283.406 322.958,282.389 322.681,281.466C322.404,280.449 321.942,279.618 321.111,278.879ZM278.889,121.172C279.166,120.248 279.259,119.232 278.982,118.215C278.704,117.199 278.15,116.368 277.411,115.721C277.134,116.645 277.041,117.661 277.319,118.677C277.596,119.601 278.15,120.525 278.889,121.172ZM340.882,270.749C340.789,271.765 340.974,272.781 341.529,273.613C341.99,274.536 342.73,275.183 343.653,275.645C343.746,274.629 343.469,273.613 343.007,272.781C342.452,271.857 341.713,271.21 340.882,270.749ZM259.211,129.302C259.211,128.286 259.026,127.362 258.564,126.438C258.01,125.607 257.27,124.867 256.347,124.405C256.254,125.422 256.531,126.438 256.993,127.27C257.548,128.193 258.287,128.84 259.211,129.302ZM357.789,257.814C357.974,258.738 358.436,259.662 359.175,260.401C359.821,261.14 360.745,261.602 361.762,261.787C361.577,260.771 361.115,259.847 360.376,259.2C359.637,258.461 358.713,257.999 357.789,257.814ZM238.238,138.264C238.423,139.28 238.978,140.204 239.624,140.943C240.363,141.59 241.287,142.144 242.303,142.329C242.119,141.313 241.564,140.389 240.918,139.65C240.179,139.003 239.255,138.449 238.238,138.264ZM370.723,240.907C371.185,241.739 371.832,242.478 372.756,243.032C373.587,243.494 374.604,243.771 375.62,243.679C375.158,242.755 374.511,242.016 373.587,241.554C372.756,241 371.739,240.815 370.723,240.907ZM229.277,159.236C228.815,158.312 228.168,157.573 227.244,157.019C226.413,156.557 225.396,156.279 224.38,156.372C224.842,157.296 225.489,158.035 226.413,158.589C227.337,159.051 228.26,159.236 229.277,159.236ZM378.853,221.136C379.592,221.968 380.424,222.429 381.44,222.707C382.364,222.984 383.38,222.984 384.304,222.614C383.658,221.875 382.826,221.321 381.81,221.044C380.886,220.766 379.87,220.859 378.853,221.136ZM221.147,178.915C220.5,178.175 219.576,177.621 218.652,177.344C217.636,177.067 216.62,177.159 215.696,177.436C216.342,178.175 217.174,178.73 218.19,179.007C219.206,179.284 220.223,179.192 221.147,178.915ZM381.717,200.071C382.457,200.626 383.473,200.903 384.489,200.903C385.505,200.903 386.522,200.626 387.353,200.071C386.522,199.517 385.505,199.148 384.489,199.148C383.473,199.148 382.549,199.517 381.717,200.071ZM218.375,200.071C217.543,199.517 216.527,199.148 215.511,199.148C214.495,199.148 213.571,199.517 212.739,200.071C213.571,200.626 214.495,200.903 215.511,200.903C216.527,200.903 217.543,200.626 218.375,200.071ZM221.147,221.136C220.223,220.859 219.206,220.766 218.19,221.044C217.174,221.321 216.342,221.875 215.696,222.614C216.62,222.984 217.636,222.984 218.652,222.707C219.576,222.522 220.5,221.968 221.147,221.136Z" style="fill:#c0da75;"/>
        <path d="M380.147,184.088C381.071,184.458 382.087,184.643 383.011,184.365C384.027,184.181 384.951,183.719 385.598,182.98C384.766,182.61 383.658,182.518 382.734,182.702C381.717,182.887 380.794,183.442 380.147,184.088ZM226.782,236.195C225.766,236.011 224.75,236.195 223.826,236.657C222.902,237.119 222.163,237.766 221.701,238.69C222.717,238.782 223.733,238.597 224.657,238.135C225.581,237.766 226.32,237.027 226.782,236.195ZM373.218,163.948C374.234,164.04 375.25,163.855 376.174,163.486C377.098,163.024 377.837,162.285 378.299,161.453C377.283,161.268 376.359,161.453 375.435,161.915C374.511,162.377 373.772,163.024 373.218,163.948ZM238.608,253.841C237.592,254.026 236.668,254.396 235.929,255.135C235.19,255.782 234.635,256.613 234.358,257.629C235.374,257.445 236.298,257.075 237.037,256.428C237.869,255.689 238.331,254.858 238.608,253.841ZM361.392,146.209C362.408,146.117 363.332,145.655 364.071,145.008C364.903,144.269 365.365,143.437 365.642,142.514C364.626,142.606 363.702,142.976 362.963,143.715C362.223,144.361 361.669,145.193 361.392,146.209ZM254.684,267.977C253.76,268.346 252.928,268.993 252.374,269.825C251.819,270.656 251.542,271.672 251.542,272.596C252.466,272.227 253.205,271.58 253.76,270.749C254.406,269.917 254.684,268.901 254.684,267.977ZM345.409,132.166C346.333,131.797 347.072,131.15 347.626,130.318C348.273,129.394 348.55,128.471 348.55,127.454C347.626,127.824 346.795,128.471 346.24,129.302C345.686,130.134 345.409,131.15 345.409,132.166ZM273.808,277.4C272.976,277.955 272.33,278.786 272.053,279.803C271.683,280.726 271.683,281.743 271.96,282.667C272.699,282.112 273.346,281.281 273.716,280.357C273.993,279.341 273.993,278.324 273.808,277.4ZM326.284,122.742C327.024,122.096 327.67,121.264 327.947,120.34C328.317,119.324 328.317,118.308 328.04,117.384C327.301,117.938 326.654,118.77 326.377,119.786C326.007,120.71 326.007,121.726 326.284,122.742ZM294.688,281.558C294.041,282.297 293.671,283.313 293.671,284.33C293.579,285.254 293.764,286.27 294.318,287.194C294.872,286.362 295.242,285.438 295.334,284.422C295.427,283.406 295.15,282.389 294.688,281.558ZM305.312,118.585C305.959,117.754 306.329,116.83 306.421,115.813C306.513,114.797 306.236,113.781 305.682,112.949C305.128,113.688 304.758,114.705 304.666,115.721C304.573,116.737 304.85,117.661 305.312,118.585ZM315.937,280.172C315.567,281.096 315.475,282.112 315.66,283.036C315.845,284.052 316.307,284.976 317.046,285.623C317.415,284.792 317.508,283.683 317.323,282.759C317.138,281.743 316.676,280.819 315.937,280.172ZM284.063,119.971C284.433,119.047 284.617,118.031 284.34,117.014C284.155,115.998 283.693,115.074 282.954,114.428C282.585,115.351 282.492,116.368 282.677,117.384C282.862,118.308 283.416,119.232 284.063,119.971ZM336.17,273.243C335.985,274.259 336.17,275.276 336.632,276.199C337.094,277.123 337.741,277.862 338.664,278.324C338.757,277.308 338.572,276.384 338.11,275.46C337.741,274.536 337.001,273.797 336.17,273.243ZM263.922,126.808C264.015,125.791 263.83,124.775 263.46,123.851C262.998,122.927 262.259,122.188 261.428,121.726C261.243,122.742 261.428,123.759 261.89,124.683C262.352,125.607 262.998,126.346 263.922,126.808ZM353.816,261.417C354.001,262.434 354.37,263.357 355.11,264.097C355.756,264.928 356.588,265.39 357.604,265.667C357.419,264.651 357.05,263.727 356.403,262.988C355.664,262.249 354.832,261.694 353.816,261.417ZM242.488,134.383C242.581,135.4 242.95,136.324 243.689,137.063C244.336,137.894 245.168,138.356 246.184,138.633C246.091,137.617 245.629,136.693 244.983,135.954C244.244,135.215 243.412,134.661 242.488,134.383ZM367.952,245.434C368.321,246.358 368.968,247.097 369.799,247.651C370.631,248.298 371.647,248.575 372.571,248.575C372.201,247.651 371.555,246.82 370.723,246.266C369.892,245.711 368.875,245.434 367.952,245.434ZM232.141,154.709C231.771,153.785 231.125,152.953 230.293,152.399C229.369,151.845 228.445,151.568 227.429,151.568C227.799,152.492 228.445,153.231 229.277,153.785C230.108,154.432 231.125,154.709 232.141,154.709ZM377.375,226.31C377.93,227.049 378.761,227.696 379.777,227.973C380.701,228.342 381.717,228.342 382.734,228.065C382.087,227.326 381.255,226.679 380.332,226.402C379.315,226.033 378.299,226.033 377.375,226.31ZM222.717,173.833C222.07,173.002 221.239,172.355 220.315,172.078C219.299,171.708 218.283,171.708 217.359,171.985C217.913,172.725 218.744,173.371 219.761,173.741C220.685,174.018 221.701,174.018 222.717,173.833ZM381.533,205.338C382.272,205.984 383.288,206.354 384.304,206.446C385.228,206.446 386.244,206.262 387.168,205.707C386.337,205.153 385.413,204.783 384.397,204.691C383.38,204.599 382.364,204.876 381.533,205.338ZM218.56,194.713C217.728,194.066 216.804,193.697 215.788,193.604C214.772,193.604 213.756,193.789 212.924,194.343C213.663,194.898 214.679,195.267 215.696,195.36C216.62,195.452 217.636,195.175 218.56,194.713ZM219.946,215.962C219.022,215.593 218.005,215.5 216.989,215.685C215.973,215.87 215.049,216.332 214.402,217.071C215.326,217.44 216.342,217.533 217.359,217.348C218.283,217.163 219.206,216.701 219.946,215.962Z" style="fill:#f15627;"/>
        <path d="M377.375,173.833C378.299,174.018 379.315,174.018 380.332,173.741C381.255,173.371 382.087,172.725 382.734,171.985C381.717,171.708 380.701,171.708 379.777,172.078C378.761,172.355 377.93,173.002 377.375,173.833ZM232.141,245.434C231.125,245.434 230.108,245.711 229.277,246.266C228.445,246.82 227.799,247.651 227.429,248.575C228.445,248.575 229.369,248.298 230.201,247.651C231.125,247.097 231.771,246.358 232.141,245.434ZM367.952,154.709C368.875,154.709 369.892,154.432 370.723,153.785C371.555,153.231 372.201,152.492 372.571,151.568C371.647,151.568 370.631,151.845 369.799,152.399C368.968,152.953 368.321,153.785 367.952,154.709ZM246.184,261.417C245.168,261.694 244.336,262.249 243.689,262.988C242.95,263.727 242.581,264.651 242.488,265.667C243.412,265.39 244.244,264.928 244.983,264.097C245.629,263.357 246.091,262.434 246.184,261.417ZM353.816,138.633C354.832,138.356 355.664,137.894 356.403,137.063C357.05,136.324 357.419,135.4 357.604,134.383C356.588,134.661 355.756,135.215 355.11,135.954C354.37,136.693 354.001,137.617 353.816,138.633ZM263.922,273.243C262.998,273.797 262.352,274.536 261.89,275.46C261.428,276.384 261.243,277.4 261.428,278.324C262.259,277.862 262.998,277.123 263.46,276.199C263.83,275.276 264.015,274.259 263.922,273.243ZM336.17,126.808C337.001,126.346 337.741,125.607 338.11,124.683C338.572,123.759 338.757,122.742 338.664,121.726C337.741,122.188 337.094,122.927 336.632,123.851C336.17,124.775 335.985,125.791 336.17,126.808ZM284.063,280.172C283.416,280.819 282.862,281.743 282.677,282.759C282.492,283.775 282.585,284.792 282.954,285.623C283.693,284.976 284.155,284.052 284.34,283.036C284.617,282.112 284.433,281.096 284.063,280.172ZM315.937,119.971C316.676,119.232 317.138,118.308 317.323,117.384C317.508,116.368 317.415,115.351 317.046,114.428C316.307,115.074 315.845,115.998 315.66,117.014C315.475,118.031 315.567,119.047 315.937,119.971ZM305.312,281.558C304.85,282.389 304.573,283.406 304.666,284.422C304.758,285.438 305.128,286.362 305.682,287.194C306.236,286.27 306.513,285.346 306.421,284.33C306.329,283.313 305.959,282.297 305.312,281.558ZM294.688,118.585C295.15,117.661 295.427,116.737 295.334,115.721C295.242,114.705 294.872,113.688 294.318,112.949C293.764,113.781 293.579,114.797 293.671,115.813C293.671,116.83 294.041,117.754 294.688,118.585ZM326.284,277.4C326.007,278.324 326.007,279.341 326.377,280.357C326.654,281.281 327.301,282.112 328.04,282.667C328.317,281.743 328.317,280.726 327.947,279.803C327.67,278.786 327.024,277.955 326.284,277.4ZM273.808,122.742C273.993,121.726 273.993,120.71 273.716,119.786C273.346,118.77 272.792,117.938 271.96,117.384C271.683,118.308 271.683,119.324 272.053,120.34C272.33,121.264 272.976,122.096 273.808,122.742ZM345.409,267.977C345.409,268.901 345.686,269.917 346.24,270.749C346.795,271.58 347.626,272.227 348.55,272.596C348.55,271.672 348.273,270.656 347.626,269.825C347.072,268.993 346.333,268.346 345.409,267.977ZM254.684,132.166C254.684,131.15 254.406,130.134 253.76,129.302C253.205,128.471 252.466,127.824 251.542,127.454C251.542,128.471 251.819,129.394 252.374,130.318C252.928,131.15 253.76,131.797 254.684,132.166ZM361.392,253.841C361.669,254.858 362.223,255.689 362.963,256.428C363.702,257.075 364.626,257.445 365.642,257.629C365.365,256.613 364.903,255.782 364.071,255.135C363.332,254.396 362.408,254.026 361.392,253.841ZM234.358,142.514C234.635,143.437 235.19,144.269 235.929,145.008C236.668,145.655 237.592,146.117 238.608,146.209C238.331,145.193 237.869,144.361 237.037,143.715C236.298,142.976 235.374,142.606 234.358,142.514ZM373.218,236.195C373.772,237.027 374.511,237.766 375.435,238.135C376.359,238.597 377.283,238.782 378.299,238.69C377.837,237.766 377.098,237.119 376.174,236.657C375.25,236.195 374.234,236.011 373.218,236.195ZM226.782,163.948C226.32,163.024 225.581,162.377 224.657,161.915C223.733,161.453 222.717,161.268 221.701,161.453C222.163,162.285 222.902,163.024 223.826,163.486C224.75,163.855 225.766,164.04 226.782,163.948ZM380.147,215.962C380.794,216.701 381.717,217.163 382.734,217.348C383.75,217.533 384.766,217.44 385.69,217.071C384.951,216.332 384.027,215.87 383.011,215.685C382.087,215.5 381.071,215.593 380.147,215.962ZM219.946,184.088C219.206,183.442 218.283,182.887 217.359,182.702C216.342,182.518 215.326,182.61 214.402,182.98C215.049,183.719 215.973,184.181 216.989,184.365C218.005,184.643 219.022,184.458 219.946,184.088ZM381.533,194.713C382.364,195.175 383.38,195.452 384.397,195.36C385.413,195.267 386.337,194.898 387.168,194.343C386.244,193.789 385.321,193.604 384.304,193.697C383.288,193.697 382.272,194.066 381.533,194.713ZM218.56,205.338C217.636,204.876 216.712,204.599 215.696,204.691C214.679,204.783 213.663,205.153 212.924,205.707C213.756,206.262 214.772,206.539 215.788,206.446C216.804,206.354 217.728,205.984 218.56,205.338ZM222.717,226.31C221.701,226.033 220.685,226.033 219.761,226.402C218.744,226.679 217.913,227.326 217.359,228.065C218.283,228.342 219.299,228.342 220.315,227.973C221.239,227.696 222.07,227.049 222.717,226.31Z" style="fill:#5db847;"/>
        <rect x="182.684" y="171.885" width="18.459" height="43.072" style="fill:#fab822;"/>
        <rect x="398.755" y="171.885" width="18.459" height="43.072" style="fill:#fab822;"/>
        <path d="M300,75.704C368.349,75.704 424.337,131.329 424.337,200.041C424.337,268.39 368.349,324.378 300,324.378C231.287,324.378 175.663,268.39 175.663,200.041C175.663,131.329 231.287,75.704 300,75.704ZM295.239,297.722L285.094,320.379L290.184,320.743L300.425,297.872L295.239,297.722ZM325.086,301.111L324.358,296.021L307.271,299.293L307.998,304.019L313.452,303.292L315.997,317.107L322.177,316.017L319.632,302.201L325.086,301.111ZM341.809,308.018L343.627,310.2L350.171,308.018L336.356,292.022L330.175,294.203L328.721,315.29L334.902,313.108L334.902,310.2L341.809,308.018ZM272.006,315.29L278.186,297.112L272.733,295.294L269.461,304.746L265.462,292.749L260.372,291.295L254.192,309.473L259.645,311.29L262.917,301.838L266.916,313.835L272.006,315.29ZM244.739,301.474L244.012,304.383L250.192,307.655L252.737,287.295L247.284,284.023L230.56,296.748L236.014,300.02L238.559,297.839L244.739,301.474ZM338.901,304.019L334.902,305.473L335.265,299.293L338.901,304.019ZM358.897,290.931L361.078,294.567C360.714,295.657 359.987,296.021 359.26,296.384C357.079,297.839 354.534,297.112 353.443,294.567C351.989,292.385 352.716,289.84 354.897,288.75C355.988,287.659 358.169,287.659 359.987,288.023L360.714,282.569C358.169,281.842 354.897,282.569 351.989,284.023C346.536,287.295 344.718,293.112 347.626,297.839C350.535,302.929 356.352,304.383 361.805,301.474C363.986,300.02 366.531,297.112 367.622,294.93L363.623,288.023L358.897,290.931ZM245.466,296.748L242.194,294.93L246.557,290.931L245.466,296.748ZM300,105.152C351.989,105.152 394.525,147.689 394.525,200.041C394.525,252.03 351.989,294.567 300,294.567C247.647,294.567 205.111,252.03 205.111,200.041C205.111,147.689 247.647,105.152 300,105.152ZM230.197,282.569L226.925,285.841C226.197,285.841 225.107,285.114 224.743,284.751C222.925,283.296 222.562,280.388 224.38,278.57C226.197,276.389 228.742,276.389 230.56,277.843C232.014,278.934 232.742,280.751 233.105,282.569L238.559,281.479C238.195,278.934 236.377,276.025 234.196,273.844C229.47,269.845 223.289,269.845 219.653,274.207C215.654,278.57 216.381,284.751 221.108,288.386C222.925,290.204 226.561,292.022 229.106,292.385L234.196,286.205L230.197,282.569ZM381.437,278.206L371.258,268.754L366.895,273.117L381.074,286.568L390.89,276.025L387.254,272.39L381.437,278.206ZM220.017,258.574C216.381,253.484 210.564,252.394 205.838,255.666C201.112,258.938 200.385,265.118 204.02,269.845C207.656,274.934 213.473,276.389 218.199,272.753C222.925,269.481 223.653,263.664 220.017,258.574ZM397.797,266.936L381.801,255.666L378.165,261.119L393.798,272.39L397.797,266.936ZM215.654,261.846C217.109,263.664 216.745,266.209 214.564,267.663C212.382,269.118 209.474,268.754 208.383,266.936C206.929,265.118 207.656,262.573 209.837,261.119C212.019,259.301 214.564,260.029 215.654,261.846ZM409.795,245.486L392.708,236.761L389.799,241.851L398.888,246.213L386.527,248.758L383.982,253.484L401.069,262.21L403.978,257.12L395.252,252.394L407.25,250.212L409.795,245.486ZM197.476,248.395L210.201,242.578L207.656,236.761L189.842,244.759L196.022,257.847L200.748,255.666L197.476,248.395ZM402.524,220.401L397.797,218.946L393.435,234.579L411.976,240.033L416.339,224.036L411.613,222.582L409.068,232.398L406.523,231.671L409.068,222.946L404.341,221.855L402.16,230.58L399.615,229.853L402.524,220.401ZM204.748,226.945C203.293,222.218 200.021,219.673 196.386,220.764C189.842,222.582 194.204,231.671 191.659,232.398C190.932,232.762 190.569,232.034 190.205,231.307C189.842,229.49 190.205,225.854 191.296,223.309L185.842,222.218C184.752,225.49 184.752,229.126 185.479,232.398C186.933,236.761 189.478,239.669 193.841,238.579C200.385,236.761 196.386,227.672 198.567,226.945C199.294,226.581 199.658,226.945 199.658,227.672C200.385,229.49 200.021,232.762 199.294,234.579L204.748,235.67C205.475,233.125 205.475,229.853 204.748,226.945ZM408.704,203.313C406.886,203.313 405.432,204.768 405.432,206.585C405.432,208.403 406.886,209.857 408.704,209.857C410.522,209.857 411.976,208.403 411.976,206.585C411.976,204.768 410.522,203.313 408.704,203.313ZM190.932,203.313C192.75,203.313 194.204,204.768 194.204,206.585C194.204,208.403 192.75,209.857 190.932,209.857C189.114,209.857 187.66,208.403 187.66,206.585C187.66,204.768 189.114,203.313 190.932,203.313ZM408.341,188.407C405.796,188.407 403.614,190.589 403.614,193.134C403.614,195.679 405.796,197.86 408.341,197.86C411.249,197.86 413.067,195.679 413.067,193.134C413.067,190.589 411.249,188.407 408.341,188.407ZM191.296,188.407C193.841,188.407 196.022,190.589 196.022,193.134C196.022,195.679 193.841,197.86 191.296,197.86C188.387,197.86 186.206,195.679 186.206,193.134C186.206,190.589 188.387,188.407 191.296,188.407ZM406.523,176.41C405.069,176.41 403.614,177.864 403.614,179.682C403.614,181.5 405.069,182.954 406.523,182.954C408.341,182.954 409.795,181.5 409.795,179.682C409.795,177.864 408.341,176.41 406.523,176.41ZM192.75,176.41C194.568,176.41 196.022,177.864 196.022,179.682C196.022,181.5 194.568,182.954 192.75,182.954C190.932,182.954 189.842,181.5 189.842,179.682C189.842,177.864 190.932,176.41 192.75,176.41ZM406.886,161.14L411.249,159.323L404.705,144.417L387.254,152.051L393.798,167.321L398.524,165.503L394.162,156.051L396.343,154.96L399.979,163.322L404.341,161.14L400.706,153.142L402.887,152.051L406.886,161.14ZM192.023,150.234C189.842,155.687 191.659,161.504 196.749,164.049C202.203,166.23 207.656,164.049 210.201,158.596C211.292,156.051 211.292,152.415 210.201,149.507L204.748,151.324C205.475,152.779 205.838,154.96 205.111,156.051C204.02,158.232 201.839,158.959 199.294,157.868C197.113,156.778 196.022,154.596 197.113,152.415C197.84,150.961 199.294,149.87 201.112,149.507L198.567,144.417C196.022,145.144 193.477,147.689 192.023,150.234ZM385.8,149.507L401.433,138.236L397.434,132.783L386.891,134.964L392.708,125.875L388.708,120.422L373.075,131.329L375.984,136.055L384.709,129.874L379.619,137.509L382.164,141.145L390.89,138.6L382.528,144.78L385.8,149.507ZM203.657,130.602C200.021,135.328 200.748,141.508 205.475,144.78C210.201,148.052 216.381,146.962 219.653,141.872C223.289,136.782 222.562,130.965 217.836,127.693C213.109,124.057 207.292,125.512 203.657,130.602ZM208.02,133.51C209.474,131.692 212.019,131.329 214.2,132.783C216.381,134.601 216.745,137.146 215.654,138.963C214.2,140.418 211.655,141.145 209.474,139.327C207.292,137.873 206.929,135.328 208.02,133.51ZM244.012,117.15L231.287,102.607L226.197,106.97L229.47,117.513L219.653,112.424L214.564,116.786L227.288,131.329L231.651,127.693L224.743,119.695L232.742,124.421L236.014,121.513L232.742,112.787L239.649,120.785L244.012,117.15ZM367.258,123.33L366.168,126.239L371.621,130.602L378.165,110.969L373.075,106.607L354.534,115.696L359.26,120.058L361.805,118.604L367.258,123.33ZM369.076,118.968L366.168,116.423L371.258,113.514L369.076,118.968ZM237.831,98.245L246.92,115.696L252.374,112.787L250.192,108.061L252.737,106.97C257.1,104.789 258.554,100.79 256.373,96.791C254.192,92.791 250.556,92.064 246.193,94.246L237.831,98.245ZM352.716,115.332L361.441,98.245L356.352,95.7L351.989,104.425L349.444,92.064L344.718,89.519L335.992,106.97L341.082,109.515L345.808,100.79L347.99,113.151L352.716,115.332ZM274.551,101.153L276.005,103.335L282.549,101.517L269.825,85.157L263.644,86.974L260.736,107.697L267.28,105.879L267.28,102.971L274.551,101.153ZM245.83,99.699L248.011,98.608C249.102,98.245 250.192,98.608 250.92,99.699C251.647,101.153 251.283,102.244 250.192,102.971L248.011,103.698L245.83,99.699ZM318.541,96.063L327.267,83.702L320.723,82.975L315.997,89.883L313.088,81.885L306.908,81.157L312.361,95.336L311.634,101.153L317.814,102.244L318.541,96.063ZM302.908,100.063L301.454,80.794L295.637,81.157L296.364,91.337L288.003,81.885L282.549,82.248L284.367,101.517L289.82,101.153L289.093,91.337L297.455,100.426L302.908,100.063ZM271.642,97.154L267.643,98.245L268.007,92.064L271.642,97.154Z" style="fill:#10653d;"/>
    </g>
    <defs>
        <radialGradient id="_Radial1" cx="0" cy="0" r="1" gradientUnits="userSpaceOnUse" gradientTransform="matrix(2.19595e-14,-366.128,358.626,2.24189e-14,300,200.041)"><stop offset="0" style="stop-color:#fff;stop-opacity:1"/><stop offset="1" style="stop-color:#eee;stop-opacity:1"/></radialGradient>
    </defs>
</svg>
