<?xml version="1.0" standalone="no"?>
<!DOCTYPE svg PUBLIC "-//W3C//DTD SVG 20010904//EN"
 "http://www.w3.org/TR/2001/REC-SVG-20010904/DTD/svg10.dtd">
<svg version="1.0" xmlns="http://www.w3.org/2000/svg"
 width="300.000000pt" height="300.000000pt" viewBox="0 0 300.000000 300.000000"
 preserveAspectRatio="xMidYMid meet">
<metadata>
Created by potrace 1.10, written by Peter Selinger 2001-2011
</metadata>
<g transform="translate(0.000000,300.000000) scale(0.100000,-0.100000)"
fill="#000000" stroke="none">
<path d="M1427 2476 c-68 -19 -126 -64 -160 -125 -27 -48 -30 -62 -33 -164 -4
-127 2 -146 72 -240 24 -31 44 -67 44 -80 0 -28 -51 -69 -106 -85 -80 -23
-160 -102 -200 -197 -8 -19 -19 -35 -24 -35 -14 0 -13 2 15 67 34 76 86 153
105 153 22 1 90 67 90 89 0 20 -30 51 -49 51 -18 0 -82 -57 -100 -90 -9 -15
-32 -52 -52 -81 -38 -57 -79 -148 -79 -173 0 -12 -17 -16 -87 -18 l-88 -3 -3
-159 -3 -158 48 -56 c27 -31 74 -84 106 -118 l57 -62 0 -229 c0 -165 3 -232
12 -241 17 -17 999 -17 1016 0 9 9 12 76 12 241 l0 229 58 62 c31 34 78 87
105 118 l48 56 -3 158 -3 159 -126 3 -125 3 -27 54 c-14 30 -43 73 -64 95 -38
44 -118 90 -153 90 -11 0 -20 4 -20 9 0 6 -13 17 -28 27 -23 13 -28 22 -24 43
5 27 51 103 65 110 19 8 58 116 51 141 -4 14 -6 55 -5 91 2 36 -3 85 -10 108
-36 121 -194 196 -332 157z m-44 -56 c-35 -20 -61 -44 -78 -75 -28 -46 -45
-63 -24 -22 24 47 61 88 97 107 59 31 62 23 5 -10z m257 10 c8 -5 11 -10 5
-10 -5 0 -17 5 -25 10 -8 5 -10 10 -5 10 6 0 17 -5 25 -10z m-17 -33 c24 -14
51 -42 63 -64 24 -42 41 -119 26 -109 -5 3 -13 21 -16 40 -10 54 -26 61 -94
42 -73 -20 -134 -20 -202 0 -50 15 -54 15 -71 -3 -10 -10 -21 -31 -24 -48 l-7
-30 22 33 c23 33 44 40 70 21 12 -8 11 -9 -6 -5 -31 9 -51 -20 -59 -86 -5 -44
-10 -58 -22 -58 -9 0 -24 -6 -32 -14 -15 -13 -16 -6 -13 72 2 48 8 92 14 97 6
7 9 5 8 -5 -7 -47 3 -48 19 -2 26 75 70 117 151 143 43 14 128 2 173 -24z m62
-5 c-3 -3 -11 0 -18 7 -9 10 -8 11 6 5 10 -3 15 -9 12 -12z m34 -38 c17 -37 8
-39 -13 -4 -9 17 -13 30 -8 30 5 0 14 -12 21 -26z m18 -76 c-3 -8 -6 -5 -6 6
-1 11 2 17 5 13 3 -3 4 -12 1 -19z m-60 -28 c18 -46 39 -52 53 -15 5 14 11 25
12 25 2 0 3 -43 3 -95 0 -66 -4 -98 -14 -107 -11 -11 -11 -10 0 10 17 27 3 55
-30 60 -17 3 -21 10 -21 41 0 53 -17 97 -43 109 l-22 11 23 0 c18 1 27 -8 39
-39z m-67 26 c0 -2 -7 -7 -16 -10 -8 -3 -12 -2 -9 4 6 10 25 14 25 6z m-145
-42 c34 -4 85 -1 115 5 30 6 57 8 62 3 5 -5 9 -31 9 -58 1 -76 6 -87 40 -80
16 3 29 4 29 2 0 -13 -35 -69 -46 -73 -8 -3 -14 -14 -14 -24 0 -10 -13 -34
-30 -52 -24 -27 -30 -44 -30 -79 0 -41 -3 -46 -45 -76 -25 -18 -48 -32 -52
-32 -3 0 -25 12 -49 28 -41 25 -44 30 -44 73 0 34 -5 51 -21 65 -12 10 -30 38
-41 62 -10 23 -23 42 -27 42 -4 0 -14 12 -22 28 -7 15 -15 30 -17 34 -2 3 12
5 30 5 33 -2 33 -2 36 48 4 83 10 98 35 91 12 -4 49 -9 82 -12z m-156 -224 c5
0 13 -10 17 -22 4 -13 17 -36 30 -51 13 -16 24 -36 24 -45 0 -13 -3 -12 -13 5
-6 12 -27 42 -45 68 -39 56 -62 100 -62 117 0 7 9 -6 20 -29 10 -24 23 -43 29
-43z m407 8 c-9 -13 -26 -38 -39 -55 -12 -18 -26 -33 -30 -33 -4 0 3 15 17 33
15 19 26 37 26 41 0 10 24 35 34 36 5 0 1 -10 -8 -22z m-517 -151 c13 -16 -17
-49 -70 -75 -34 -18 -123 -138 -113 -153 3 -5 0 -9 -5 -9 -21 0 -12 17 82 162
27 40 74 88 88 88 4 0 12 -6 18 -13z m235 -86 c25 -17 55 -31 69 -31 23 0 112
59 119 80 1 5 24 -9 50 -31 43 -36 46 -42 33 -55 -9 -10 -15 -36 -16 -67 -1
-52 -1 -52 -11 -17 -15 53 -23 55 -49 14 -13 -21 -27 -42 -31 -48 -4 -6 -15 1
-28 17 -17 22 -30 27 -63 27 -25 0 -52 -8 -66 -19 -22 -16 -23 -21 -12 -53 7
-20 20 -43 31 -53 25 -23 18 -33 -20 -27 -34 5 -34 5 -19 30 13 21 -8 75 -46
116 -38 42 -57 22 -53 -58 3 -52 6 -62 26 -72 l23 -12 -28 -3 c-15 -2 -41 -3
-57 -1 l-29 4 24 12 c22 11 24 18 27 103 2 71 -1 94 -13 106 -14 14 -11 19 30
54 25 20 45 44 46 53 0 8 5 3 10 -11 5 -14 29 -40 53 -58z m-209 -41 c-3 -5
-12 -10 -18 -10 -7 0 -6 4 3 10 19 12 23 12 15 0z m581 -6 c18 -14 18 -14 -6
-3 -31 14 -36 19 -24 19 6 0 19 -7 30 -16z m-516 -89 l0 -95 -101 0 -101 0 23
38 c34 57 90 112 134 133 22 10 41 19 43 19 1 0 2 -43 2 -95z m495 60 c43 -25
80 -66 109 -122 l17 -33 -96 0 -95 0 0 90 c0 62 4 90 12 90 6 0 30 -11 53 -25z
m80 -24 c-6 -5 -25 10 -25 20 0 5 6 4 14 -3 8 -7 12 -15 11 -17z m-205 -56 l0
-75 -35 0 -35 0 23 48 c12 26 25 49 30 50 4 2 7 15 7 28 0 13 2 24 5 24 3 0 5
-34 5 -75z m-532 35 c-22 -30 -35 -41 -22 -17 9 16 36 47 41 47 2 0 -6 -13
-19 -30z m262 -64 l19 -46 -32 0 -33 0 -1 65 c0 59 1 64 13 46 8 -11 23 -40
34 -65z m519 27 l21 -38 -25 30 c-23 28 -31 45 -21 45 2 0 14 -17 25 -37z
m-360 13 c9 -11 8 -22 -6 -50 -13 -28 -23 -36 -43 -36 -22 0 -30 7 -42 38 -14
35 -14 40 1 50 23 16 77 14 90 -2z m-551 -46 c-8 -26 -7 -34 7 -50 18 -20 17
-20 -19 -20 -21 0 -36 3 -34 8 3 4 13 26 23 50 21 48 39 58 23 12z m92 10 c-6
-11 -13 -20 -16 -20 -2 0 0 9 6 20 6 11 13 20 16 20 2 0 0 -9 -6 -20z m492
-12 c-7 -7 -12 -8 -12 -2 0 6 3 14 7 17 3 4 9 5 12 2 2 -3 -1 -11 -7 -17z
m374 -41 c31 -18 0 -42 -37 -29 -19 7 -19 9 -5 21 9 8 16 21 17 30 0 13 1 14
6 1 3 -8 12 -19 19 -23z m-874 -28 c-9 -3 -24 -4 -34 -1 -16 4 -16 5 0 26 l16
23 17 -21 c16 -19 16 -21 1 -27z m503 21 c18 -20 17 -20 -20 -20 -37 0 -38 0
-20 20 10 11 19 20 20 20 1 0 10 -9 20 -20z m125 -5 c11 -13 8 -15 -19 -15
-30 0 -39 9 -24 23 11 11 30 8 43 -8z m-897 -37 c-10 -11 -19 -15 -21 -8 -5
15 18 41 30 34 5 -3 1 -15 -9 -26z m1396 -4 c3 -16 1 -17 -13 -5 -19 16 -21
34 -3 29 6 -3 14 -13 16 -24z m-39 -114 l0 -110 -670 0 -670 0 0 110 0 110
670 0 670 0 0 -110z m-1373 58 c-3 -8 -6 -5 -6 6 -1 11 2 17 5 13 3 -3 4 -12
1 -19z m1413 6 c0 -8 -5 -12 -10 -9 -6 4 -8 11 -5 16 9 14 15 11 15 -7z
m-1413 -56 c-3 -8 -6 -5 -6 6 -1 11 2 17 5 13 3 -3 4 -12 1 -19z m1410 0 c-3
-8 -6 -5 -6 6 -1 11 2 17 5 13 3 -3 4 -12 1 -19z m-1410 -50 c-3 -7 -5 -2 -5
12 0 14 2 19 5 13 2 -7 2 -19 0 -25z m1410 0 c-3 -7 -5 -2 -5 12 0 14 2 19 5
13 2 -7 2 -19 0 -25z m-1354 -98 c20 0 22 -11 6 -27 -9 -9 -7 -19 6 -40 34
-52 119 -133 146 -141 24 -6 26 -9 14 -25 -12 -16 -22 -7 -119 102 -67 76
-106 128 -106 142 0 21 1 21 18 6 10 -10 26 -17 35 -17z m1357 15 c0 -9 -18
-35 -41 -58 -23 -24 -36 -33 -30 -20 14 28 5 51 -22 56 -13 3 -6 5 15 6 21 0
43 8 50 16 17 19 28 19 28 0z m-80 -51 c0 -3 -21 -27 -46 -54 -26 -27 -53 -58
-61 -70 -14 -20 -22 -20 -523 -20 -501 0 -509 0 -523 20 -8 12 -35 43 -61 70
-25 27 -46 51 -46 54 0 3 284 6 630 6 347 0 630 -3 630 -6z m-5 -64 c-3 -5
-12 -10 -18 -10 -7 0 -6 4 3 10 19 12 23 12 15 0z m-71 -75 c-14 -19 -30 -35
-33 -35 -4 0 -14 -11 -21 -25 l-13 -25 -12 23 c-10 20 -8 23 23 34 19 7 43 24
54 38 11 14 22 25 24 25 3 0 -7 -16 -22 -35z m-94 -280 l0 -215 -460 0 -460 0
0 215 0 215 460 0 460 0 0 -215z m33 160 c-7 -21 -12 -19 -10 4 0 11 5 18 9
15 4 -3 5 -11 1 -19z m-976 -102 c-2 -21 -4 -4 -4 37 0 41 2 58 4 38 2 -21 2
-55 0 -75z m0 -210 c-2 -27 -3 -5 -3 47 0 52 1 74 3 48 2 -27 2 -69 0 -95z
m18 -73 c18 -19 17 -20 -3 -20 -15 0 -22 6 -22 20 0 11 2 20 3 20 2 0 12 -9
22 -20z m955 -4 c0 -8 -9 -14 -19 -13 -15 1 -17 4 -9 14 14 17 28 16 28 -1z
m-727 -13 c-13 -2 -35 -2 -50 0 -16 2 -5 4 22 4 28 0 40 -2 28 -4z m54 1 c-3
-3 -12 -4 -19 -1 -8 3 -5 6 6 6 11 1 17 -2 13 -5z"/>
</g>
</svg>
