<svg width="442" height="268" viewBox="0 0 442 268" fill="none" xmlns="http://www.w3.org/2000/svg">
<g clip-path="url(#clip0_1_2)">
<path d="M22.1945 241.474C8.81182 228.847 -0.0413613 210.579 2.55283 192.144C7.94709 154.262 -16.3477 106.11 22.8534 92.0101C42.6598 84.8547 39.4067 32.2415 55.3013 17.594C82.7667 -7.6604 126.744 24.3705 213.711 19.6143C298.867 14.9422 336.503 -30.6419 394.769 35.6929C440.188 87.4223 405.846 115.749 438.006 163.354C457.688 192.48 398.969 254.311 398.969 254.311L35.6596 254.143L22.1945 241.474Z" fill="#F8F8FF"/>
<path d="M25.4477 262.393C25.4477 262.393 29.1537 209.359 58.1839 214.62C87.0494 219.839 83.714 246.609 98.5379 243.242C113.362 239.874 114.556 203.761 120.362 160.744C125.386 123.41 145.398 134.858 149.145 146.896C152.275 156.998 153.51 188.734 165.451 190.839C177.393 192.943 181.511 168.952 182.334 157.166C183.158 145.381 187.276 97.3976 202.305 96.7663C216.512 96.177 222.688 117.601 222.688 158.429C222.688 199.257 224.335 225.774 230.924 236.718C237.512 247.661 246.159 244.715 248.836 243.242C252.171 241.39 262.219 224.09 264.689 181.158C267.16 138.226 283.631 144.539 287.337 150.853C291.043 157.166 301.132 191.891 313.485 191.049C325.838 190.207 329.338 182 331.397 162.638C333.456 143.276 336.503 95.3352 352.192 95.9245C368.457 96.5558 374.963 172.361 374.716 195.174C374.386 223.922 395.428 257.973 408.605 257.973" fill="url(#paint0_linear_1_2)"/>
<path d="M25.4477 262.393C25.4477 262.393 29.1537 209.359 58.1839 214.62C87.0494 219.839 83.714 246.609 98.5379 243.242C113.362 239.874 114.556 203.761 120.362 160.744C125.386 123.41 145.398 134.858 149.145 146.896C152.275 156.998 153.51 188.734 165.451 190.839C177.393 192.943 181.511 168.952 182.334 157.166C183.158 145.381 187.276 97.3976 202.305 96.7663C216.512 96.177 222.688 117.601 222.688 158.429C222.688 199.257 224.335 225.774 230.924 236.718C237.512 247.661 246.159 244.715 248.836 243.242C252.171 241.39 262.219 224.09 264.689 181.158C267.16 138.226 283.631 144.539 287.337 150.853C291.043 157.166 301.132 191.891 313.485 191.049C325.838 190.207 329.338 182 331.397 162.638C333.456 143.276 336.503 95.3352 352.192 95.9245C368.457 96.5558 374.963 172.361 374.716 195.174C374.386 223.922 395.428 257.973 408.605 257.973" stroke="#BAC6F2" stroke-width="2.10634" stroke-miterlimit="10"/>
<path d="M97.5085 248.503C100.465 248.503 102.862 246.053 102.862 243.031C102.862 240.009 100.465 237.559 97.5085 237.559C94.5521 237.559 92.1554 240.009 92.1554 243.031C92.1554 246.053 94.5521 248.503 97.5085 248.503Z" fill="#BAC6F2"/>
<path d="M25.0359 267.317C27.9924 267.317 30.389 264.868 30.389 261.846C30.389 258.824 27.9924 256.374 25.0359 256.374C22.0795 256.374 19.6829 258.824 19.6829 261.846C19.6829 264.868 22.0795 267.317 25.0359 267.317Z" fill="#BAC6F2"/>
<path d="M168.746 195.469C171.702 195.469 174.099 193.019 174.099 189.997C174.099 186.975 171.702 184.525 168.746 184.525C165.789 184.525 163.393 186.975 163.393 189.997C163.393 193.019 165.789 195.469 168.746 195.469Z" fill="#BAC6F2"/>
<path d="M135.804 141.214C138.76 141.214 141.157 138.764 141.157 135.742C141.157 132.72 138.76 130.27 135.804 130.27C132.847 130.27 130.451 132.72 130.451 135.742C130.451 138.764 132.847 141.214 135.804 141.214Z" fill="#BAC6F2"/>
<path d="M204.241 102.785C207.197 102.785 209.594 100.335 209.594 97.3135C209.594 94.2915 207.197 91.8417 204.241 91.8417C201.284 91.8417 198.888 94.2915 198.888 97.3135C198.888 100.335 201.284 102.785 204.241 102.785Z" fill="#BAC6F2"/>
<path d="M280.337 152.957C283.293 152.957 285.69 150.507 285.69 147.485C285.69 144.463 283.293 142.014 280.337 142.014C277.38 142.014 274.984 144.463 274.984 147.485C274.984 150.507 277.38 152.957 280.337 152.957Z" fill="#BAC6F2"/>
<path d="M316.903 196.395C319.859 196.395 322.256 193.945 322.256 190.923C322.256 187.901 319.859 185.451 316.903 185.451C313.946 185.451 311.549 187.901 311.549 190.923C311.549 193.945 313.946 196.395 316.903 196.395Z" fill="#BAC6F2"/>
<path d="M351.245 102.196C354.201 102.196 356.598 99.7462 356.598 96.7242C356.598 93.7022 354.201 91.2524 351.245 91.2524C348.288 91.2524 345.892 93.7022 345.892 96.7242C345.892 99.7462 348.288 102.196 351.245 102.196Z" fill="#BAC6F2"/>
<path d="M408.44 263.908C411.397 263.908 413.793 261.458 413.793 258.436C413.793 255.414 411.397 252.964 408.44 252.964C405.484 252.964 403.087 255.414 403.087 258.436C403.087 261.458 405.484 263.908 408.44 263.908Z" fill="#BAC6F2"/>
<path d="M242.865 248.924C245.822 248.924 248.218 246.474 248.218 243.452C248.218 240.43 245.822 237.98 242.865 237.98C239.909 237.98 237.512 240.43 237.512 243.452C237.512 246.474 239.909 248.924 242.865 248.924Z" fill="#BAC6F2"/>
<path d="M85.8964 96.2612C96.7897 96.2612 105.62 87.2346 105.62 76.0998C105.62 64.965 96.7897 55.9384 85.8964 55.9384C75.0031 55.9384 66.1724 64.965 66.1724 76.0998C66.1724 87.2346 75.0031 96.2612 85.8964 96.2612Z" fill="white"/>
<path d="M119.645 79.906C120.906 71.9668 115.632 64.4861 107.865 63.1976C100.098 61.909 92.7792 67.3004 91.5185 75.2396C90.2579 83.1789 95.5324 90.6595 103.299 91.948C111.066 93.2366 118.385 87.8452 119.645 79.906Z" fill="white"/>
<path d="M320.073 68.4393C330.967 68.4393 339.797 59.4127 339.797 48.2779C339.797 37.1431 330.967 28.1165 320.073 28.1165C309.18 28.1165 300.349 37.1431 300.349 48.2779C300.349 59.4127 309.18 68.4393 320.073 68.4393Z" fill="white"/>
<path d="M339.797 64.2723C347.666 64.2723 354.045 57.7521 354.045 49.709C354.045 41.6659 347.666 35.1456 339.797 35.1456C331.929 35.1456 325.55 41.6659 325.55 49.709C325.55 57.7521 331.929 64.2723 339.797 64.2723Z" fill="white"/>
<path d="M386.657 141.046L396.458 126.735C397.528 124.799 400.534 124.967 401.975 126.609L411.611 140.077C413.587 142.35 412.558 146.559 409.593 146.602L390.116 146.938C387.975 146.98 386.204 145.213 386.204 143.024C386.163 142.35 386.328 141.677 386.657 141.046ZM37.4716 151.021L27.6713 165.29C26.6007 167.226 23.5948 167.058 22.1535 165.374L12.5592 151.863C10.5826 149.59 11.6533 145.381 14.618 145.339L34.095 145.044C36.2363 145.044 38.0069 146.77 38.0069 148.959C37.9657 149.716 37.801 150.432 37.4716 151.021Z" fill="#BAC6F2"/>
<path d="M366.892 88.4744L373.069 88.0535C373.069 88.0535 374.304 80.4772 379.245 77.9518V69.5337C379.245 69.5337 385.01 72.9009 386.246 73.3218C387.481 73.7427 398.599 68.2709 411.364 76.2682C422.111 83.0027 419.723 94.8301 418.693 98.3657C418.529 98.9971 418.199 99.6284 417.829 100.176C416.923 101.438 415.152 103.964 414.246 104.89C413.011 106.152 415.029 113.182 413.423 113.729C412.187 114.15 409.717 108.678 408.481 109.099C401.852 111.372 394.687 111.624 387.893 109.772C387.44 109.646 386.946 109.856 386.74 110.319C386.204 111.456 385.093 113.603 384.187 114.192C382.951 115.034 382.951 109.562 381.716 108.72C380.481 107.878 366.892 95.6719 366.892 95.6719V88.4744V88.4744Z" fill="url(#paint1_linear_1_2)"/>
<path d="M418.57 89.7792C418.57 89.7792 423.635 86.1174 426.311 88.8532C428.988 91.5891 428.576 94.4092 426.435 95.0826C424.829 95.5877 422.276 92.8098 423.388 91.042C424.5 89.2741 426.394 88.3061 428.576 89.7792C430.759 91.2524 431.747 94.2829 431.87 95.9665" stroke="#F93764" stroke-width="1.68507" stroke-miterlimit="10" stroke-linecap="round"/>
<path d="M380.069 91.4208C381.342 91.4208 382.375 90.3655 382.375 89.0637C382.375 87.7619 381.342 86.7066 380.069 86.7066C378.795 86.7066 377.763 87.7619 377.763 89.0637C377.763 90.3655 378.795 91.4208 380.069 91.4208Z" fill="#F7B14A"/>
<path d="M389.457 74.795C389.457 74.795 398.681 72.2696 404.652 75.0475" stroke="url(#paint2_linear_1_2)" stroke-width="0.421269" stroke-linecap="round" stroke-linejoin="round"/>
<path d="M397.24 65.4509C402.334 65.4509 406.464 61.2297 406.464 56.0226C406.464 50.8155 402.334 46.5943 397.24 46.5943C392.146 46.5943 388.016 50.8155 388.016 56.0226C388.016 61.2297 392.146 65.4509 397.24 65.4509Z" fill="url(#paint3_linear_1_2)"/>
<path d="M397.158 63.7672C401.319 63.7672 404.693 60.3187 404.693 56.0647C404.693 51.8107 401.319 48.3621 397.158 48.3621C392.996 48.3621 389.622 51.8107 389.622 56.0647C389.622 60.3187 392.996 63.7672 397.158 63.7672Z" stroke="url(#paint4_linear_1_2)" stroke-width="0.421269" stroke-miterlimit="10"/>
<path d="M396.985 59.5264V58.5375C396.49 58.4752 396.087 58.3653 395.776 58.2078C395.468 58.0466 395.201 57.7884 394.974 57.4331C394.75 57.0778 394.62 56.6438 394.584 56.131L395.578 55.9442C395.655 56.4753 395.791 56.8654 395.985 57.1145C396.263 57.4661 396.596 57.6621 396.985 57.7023V54.5542C396.578 54.4773 396.162 54.3198 395.737 54.0817C395.422 53.9059 395.179 53.6623 395.007 53.351C394.838 53.0396 394.754 52.6862 394.754 52.2906C394.754 51.5873 395.003 51.0178 395.501 50.5819C395.834 50.2889 396.329 50.1094 396.985 50.0435V49.571H397.567V50.0435C398.142 50.0984 398.598 50.2669 398.935 50.5489C399.367 50.9079 399.627 51.4005 399.715 52.0269L398.693 52.1807C398.635 51.7924 398.512 51.4957 398.325 51.2906C398.142 51.0819 397.889 50.9445 397.567 50.8786V53.7301C398.065 53.8546 398.395 53.9516 398.556 54.0212C398.864 54.1568 399.115 54.3216 399.309 54.5157C399.503 54.7098 399.651 54.9406 399.754 55.208C399.86 55.4754 399.913 55.7647 399.913 56.0761C399.913 56.761 399.695 57.3324 399.259 57.7903C398.823 58.2481 398.259 58.4935 397.567 58.5265V59.5264H396.985ZM396.985 50.8676C396.6 50.9262 396.296 51.08 396.073 51.3291C395.853 51.5782 395.743 51.873 395.743 52.2137C395.743 52.5506 395.836 52.8327 396.023 53.0598C396.214 53.2869 396.534 53.4682 396.985 53.6037V50.8676ZM397.567 57.7023C397.952 57.6547 398.268 57.4881 398.517 57.2024C398.77 56.9167 398.897 56.5632 398.897 56.142C398.897 55.783 398.807 55.4955 398.627 55.2794C398.452 55.0596 398.098 54.8637 397.567 54.6915V57.7023Z" fill="#F9B449"/>
<path d="M407.946 45.0369C411.289 45.0369 413.999 42.2668 413.999 38.8496C413.999 35.4325 411.289 32.6623 407.946 32.6623C404.603 32.6623 401.893 35.4325 401.893 38.8496C401.893 42.2668 404.603 45.0369 407.946 45.0369Z" fill="url(#paint5_linear_1_2)"/>
<path d="M407.905 43.9847C410.657 43.9847 412.887 41.7045 412.887 38.8917C412.887 36.0789 410.657 33.7988 407.905 33.7988C405.153 33.7988 402.922 36.0789 402.922 38.8917C402.922 41.7045 405.153 43.9847 407.905 43.9847Z" stroke="url(#paint6_linear_1_2)" stroke-width="0.421269" stroke-miterlimit="10"/>
<path d="M407.791 41.5879V40.9369C407.466 40.896 407.201 40.8236 406.996 40.72C406.793 40.6139 406.617 40.4439 406.468 40.2101C406.321 39.9763 406.235 39.6906 406.211 39.3531L406.865 39.2301C406.916 39.5797 407.005 39.8364 407.133 40.0004C407.316 40.2318 407.536 40.3608 407.791 40.3873V38.3152C407.524 38.2646 407.25 38.1609 406.97 38.0042C406.763 37.8885 406.603 37.7282 406.489 37.5233C406.378 37.3184 406.323 37.0857 406.323 36.8254C406.323 36.3625 406.487 35.9876 406.815 35.7007C407.034 35.5079 407.36 35.3897 407.791 35.3464V35.0354H408.175V35.3464C408.553 35.3825 408.853 35.4934 409.075 35.679C409.359 35.9153 409.531 36.2395 409.588 36.6518L408.916 36.753C408.877 36.4975 408.796 36.3022 408.674 36.1672C408.553 36.0298 408.387 35.9394 408.175 35.896V37.7728C408.502 37.8548 408.719 37.9187 408.825 37.9645C409.028 38.0537 409.193 38.1621 409.321 38.2899C409.449 38.4177 409.546 38.5696 409.614 38.7455C409.684 38.9215 409.719 39.112 409.719 39.3169C409.719 39.7677 409.575 40.1438 409.288 40.4451C409.001 40.7465 408.63 40.908 408.175 40.9297V41.5879H407.791ZM407.791 35.8888C407.538 35.9274 407.338 36.0286 407.191 36.1925C407.046 36.3565 406.974 36.5505 406.974 36.7747C406.974 36.9965 407.035 37.1822 407.158 37.3316C407.284 37.4811 407.495 37.6004 407.791 37.6896V35.8888ZM408.175 40.3873C408.428 40.3559 408.636 40.2463 408.8 40.0582C408.966 39.8702 409.05 39.6375 409.05 39.3603C409.05 39.124 408.991 38.9348 408.872 38.7926C408.757 38.6479 408.524 38.5189 408.175 38.4056V40.3873Z" fill="#F9B449"/>
<path d="M386.246 47.394C388.633 47.394 390.569 45.4153 390.569 42.9745C390.569 40.5337 388.633 38.555 386.246 38.555C383.858 38.555 381.922 40.5337 381.922 42.9745C381.922 45.4153 383.858 47.394 386.246 47.394Z" fill="url(#paint7_linear_1_2)"/>
<path d="M386.246 46.5943C388.201 46.5943 389.787 44.9737 389.787 42.9745C389.787 40.9753 388.201 39.3547 386.246 39.3547C384.29 39.3547 382.704 40.9753 382.704 42.9745C382.704 44.9737 384.29 46.5943 386.246 46.5943Z" stroke="url(#paint8_linear_1_2)" stroke-width="0.421269" stroke-miterlimit="10"/>
<path d="M386.155 44.9142V44.4484C385.922 44.4191 385.732 44.3673 385.586 44.2931C385.441 44.2172 385.315 44.0956 385.208 43.9283C385.103 43.7609 385.041 43.5565 385.024 43.315L385.493 43.227C385.529 43.4772 385.593 43.6609 385.684 43.7782C385.815 43.9438 385.972 44.0361 386.155 44.0551V42.5723C385.963 42.5361 385.768 42.4619 385.568 42.3498C385.419 42.267 385.304 42.1523 385.223 42.0056C385.144 41.859 385.104 41.6925 385.104 41.5062C385.104 41.175 385.222 40.9067 385.456 40.7014C385.613 40.5634 385.846 40.4789 386.155 40.4479V40.2253H386.429V40.4479C386.7 40.4737 386.915 40.5531 387.074 40.6859C387.277 40.855 387.4 41.087 387.441 41.382L386.96 41.4545C386.932 41.2716 386.874 41.1319 386.786 41.0353C386.7 40.9369 386.581 40.8722 386.429 40.8412V42.1842C386.664 42.2428 386.819 42.2886 386.895 42.3213C387.04 42.3852 387.158 42.4628 387.25 42.5542C387.341 42.6456 387.411 42.7543 387.459 42.8803C387.509 43.0062 387.534 43.1425 387.534 43.2891C387.534 43.6117 387.432 43.8808 387.226 44.0965C387.021 44.3121 386.755 44.4277 386.429 44.4432V44.9142H386.155ZM386.155 40.836C385.974 40.8636 385.831 40.9361 385.725 41.0534C385.622 41.1707 385.57 41.3095 385.57 41.47C385.57 41.6287 385.614 41.7615 385.702 41.8685C385.792 41.9754 385.943 42.0608 386.155 42.1247V40.836ZM386.429 44.0551C386.61 44.0326 386.76 43.9542 386.877 43.8196C386.996 43.685 387.055 43.5186 387.055 43.3202C387.055 43.1511 387.013 43.0157 386.929 42.9139C386.846 42.8104 386.679 42.7181 386.429 42.637V44.0551Z" fill="#F9B449"/>
<path d="M25.1183 199.257H48.1778C48.3837 199.257 48.5484 199.425 48.5484 199.636C48.5484 199.846 48.3837 200.015 48.1778 200.015H25.1183C24.9125 200.015 24.7477 199.846 24.7477 199.636C24.7477 199.425 24.9125 199.257 25.1183 199.257ZM25.1183 200.688H48.1778C48.3837 200.688 48.5484 200.856 48.5484 201.067C48.5484 201.277 48.3837 201.446 48.1778 201.446H25.1183C24.9125 201.446 24.7477 201.277 24.7477 201.067C24.7477 200.856 24.9125 200.688 25.1183 200.688ZM25.1183 202.077H48.1778C48.3837 202.077 48.5484 202.245 48.5484 202.456C48.5484 202.666 48.3837 202.835 48.1778 202.835H25.1183C24.9125 202.835 24.7477 202.666 24.7477 202.456C24.7477 202.287 24.9125 202.077 25.1183 202.077ZM30.3891 206.665H51.4308C51.6367 206.665 51.8014 206.833 51.8014 207.044C51.8014 207.254 51.6367 207.422 51.4308 207.422H30.3891C30.1832 207.422 30.0185 207.254 30.0185 207.044C30.0185 206.875 30.1832 206.665 30.3891 206.665ZM30.3891 208.096H51.4308C51.6367 208.096 51.8014 208.264 51.8014 208.475C51.8014 208.685 51.6367 208.854 51.4308 208.854H30.3891C30.1832 208.854 30.0185 208.685 30.0185 208.475C30.0185 208.264 30.1832 208.096 30.3891 208.096ZM30.3891 209.527H51.4308C51.6367 209.527 51.8014 209.695 51.8014 209.906C51.8014 210.116 51.6367 210.285 51.4308 210.285H30.3891C30.1832 210.285 30.0185 210.116 30.0185 209.906C30.0185 209.695 30.1832 209.527 30.3891 209.527Z" fill="#F4F4F4"/>
<path d="M-5.84722 197.742C-5.84722 197.742 -8.97672 197.994 -8.97672 201.151C-8.97672 204.308 -5.72369 204.476 -5.72369 204.476L49.0837 204.644V203.676H24.583C24.583 203.676 23.8006 203.845 23.9653 202.582V199.257C23.9653 198.878 24.2536 198.541 24.6242 198.499H24.7065C25.8183 198.499 48.7131 198.752 48.7131 198.752V197.489L-5.84722 197.742Z" fill="url(#paint9_linear_1_2)"/>
<path d="M-3.54125 204.476C-3.54125 204.476 -6.95898 204.855 -6.95898 208.348C-6.95898 211.337 -4.57069 212.052 -3.91184 212.179C-3.78831 212.179 -3.70596 212.221 -3.58242 212.221L52.3779 212.305L52.3367 211.126L30.6361 211.042C30.6361 211.042 29.2361 211.042 29.4008 209.653V206.665C29.4008 206.665 29.2361 205.57 30.4714 205.57C31.542 205.57 52.0073 205.823 52.0073 205.823V204.308L-3.54125 204.476Z" fill="url(#paint10_linear_1_2)"/>
<path d="M28.0419 199.257H29.8949C30.4302 199.636 30.8008 200.183 30.9655 200.856C31.295 201.951 30.9655 202.287 31.5832 203.55C31.9538 204.308 32.3656 204.771 32.6538 205.276C32.7362 205.402 32.7774 206.118 32.8185 206.244L32.9832 208.138L32.2009 207.675L31.4185 208.475C31.4185 208.475 31.4185 205.949 31.0891 205.486C30.7597 205.023 29.5655 203.255 29.689 201.993C29.8949 200.52 29.442 200.057 28.0419 199.257Z" fill="#F8246A"/>
<path d="M58.1839 164.448H62.4252C63.4546 164.448 64.2782 165.29 64.2782 166.342V211.421C64.2782 212.473 63.4546 213.315 62.4252 213.315H58.1839C57.1545 213.315 56.3309 212.473 56.3309 211.421V166.342C56.3309 165.29 57.1545 164.448 58.1839 164.448Z" fill="url(#paint11_linear_1_2)"/>
<path d="M73.049 183.852L76.0962 182.084C76.9609 181.579 78.1139 181.873 78.6492 182.799L93.3496 208.854C93.8437 209.737 93.5554 210.916 92.6495 211.463L89.6024 213.231C88.7377 213.736 87.5847 213.441 87.0494 212.515L72.349 186.461C71.8549 185.535 72.1431 184.357 73.049 183.852Z" fill="url(#paint12_linear_1_2)"/>
<path d="M66.0077 171.393H70.2489C71.2784 171.393 72.1019 172.235 72.1019 173.287V211.421C72.1019 212.473 71.2784 213.315 70.2489 213.315H66.0077C64.9782 213.315 64.1547 212.473 64.1547 211.421V173.287C64.1547 172.277 64.9782 171.393 66.0077 171.393Z" fill="url(#paint13_linear_1_2)"/>
</g>
<defs>
<linearGradient id="paint0_linear_1_2" x1="217.012" y1="254.332" x2="216.784" y2="64.0324" gradientUnits="userSpaceOnUse">
<stop stop-color="white"/>
<stop offset="1" stop-color="#BAC6F2"/>
</linearGradient>
<linearGradient id="paint1_linear_1_2" x1="413.117" y1="106.755" x2="369.786" y2="75.9523" gradientUnits="userSpaceOnUse">
<stop stop-color="#F92468"/>
<stop offset="1" stop-color="#F9B449"/>
</linearGradient>
<linearGradient id="paint2_linear_1_2" x1="389.237" y1="74.3964" x2="404.843" y2="74.3964" gradientUnits="userSpaceOnUse">
<stop stop-color="#F92468"/>
<stop offset="1" stop-color="#F93764"/>
</linearGradient>
<linearGradient id="paint3_linear_1_2" x1="385.25" y1="74.2882" x2="403.305" y2="47.9777" gradientUnits="userSpaceOnUse">
<stop stop-color="#F92468"/>
<stop offset="1" stop-color="#F9B449"/>
</linearGradient>
<linearGradient id="paint4_linear_1_2" x1="389.422" y1="56.0655" x2="404.905" y2="56.0655" gradientUnits="userSpaceOnUse">
<stop stop-color="#F92468"/>
<stop offset="1" stop-color="#F93764"/>
</linearGradient>
<linearGradient id="paint5_linear_1_2" x1="400.053" y1="50.88" x2="411.938" y2="33.5568" gradientUnits="userSpaceOnUse">
<stop stop-color="#F92468"/>
<stop offset="1" stop-color="#F9B449"/>
</linearGradient>
<linearGradient id="paint6_linear_1_2" x1="402.747" y1="38.8926" x2="413.083" y2="38.8926" gradientUnits="userSpaceOnUse">
<stop stop-color="#F92468"/>
<stop offset="1" stop-color="#F93764"/>
</linearGradient>
<linearGradient id="paint7_linear_1_2" x1="380.608" y1="51.5669" x2="389.116" y2="39.1713" gradientUnits="userSpaceOnUse">
<stop stop-color="#F92468"/>
<stop offset="1" stop-color="#F9B449"/>
</linearGradient>
<linearGradient id="paint8_linear_1_2" x1="382.484" y1="42.9753" x2="389.995" y2="42.9753" gradientUnits="userSpaceOnUse">
<stop stop-color="#F92468"/>
<stop offset="1" stop-color="#F93764"/>
</linearGradient>
<linearGradient id="paint9_linear_1_2" x1="-9.0006" y1="201.068" x2="49.0466" y2="201.068" gradientUnits="userSpaceOnUse">
<stop stop-color="#4B46BD"/>
<stop offset="1" stop-color="#5CD4EE"/>
</linearGradient>
<linearGradient id="paint10_linear_1_2" x1="-6.95734" y1="208.299" x2="52.3589" y2="208.299" gradientUnits="userSpaceOnUse">
<stop stop-color="#F71F68"/>
<stop offset="1" stop-color="#F9C448"/>
</linearGradient>
<linearGradient id="paint11_linear_1_2" x1="48.1423" y1="204.381" x2="81.3796" y2="163.81" gradientUnits="userSpaceOnUse">
<stop stop-color="#4B46BD"/>
<stop offset="1" stop-color="#5CD4EE"/>
</linearGradient>
<linearGradient id="paint12_linear_1_2" x1="79.1015" y1="212.321" x2="81.2742" y2="173.012" gradientUnits="userSpaceOnUse">
<stop stop-color="#4B46BD"/>
<stop offset="1" stop-color="#5CD4EE"/>
</linearGradient>
<linearGradient id="paint13_linear_1_2" x1="57.57" y1="205.844" x2="86.4755" y2="170.56" gradientUnits="userSpaceOnUse">
<stop stop-color="#F71F68"/>
<stop offset="1" stop-color="#F9C448"/>
</linearGradient>
<clipPath id="clip0_1_2">
<rect width="442" height="267.317" fill="white"/>
</clipPath>
</defs>
</svg>
