<svg xmlns="http://www.w3.org/2000/svg" shape-rendering="geometricPrecision" text-rendering="geometricPrecision" image-rendering="optimizeQuality" fill-rule="evenodd" clip-rule="evenodd" viewBox="0 0 512 411.93"><path d="M386.2 314.75h-50.76c-11.28 0-20.51 9.23-20.51 20.52v76.66h91.78v-76.66c0-11.29-9.23-20.52-20.51-20.52zM252.37 54.48h58.92c7.77 0 14.11 6.35 14.11 14.12v36.96c0 3.88-1.58 7.41-4.14 9.97-2.56 2.56-6.09 4.15-9.97 4.15h-34.52l-21.44 18.42c-.99.86-2.49.74-3.35-.26a2.31 2.31 0 0 1-.56-1.7l1.14-16.47h-.19c-3.88 0-7.41-1.58-9.97-4.14-2.56-2.56-4.15-6.09-4.15-9.97V68.6c0-7.77 6.34-14.12 14.12-14.12zM46.13 1.21c69.29 8.69 138.41 12.96 207.36 12.93 68.95-.04 138.08-4.39 207.37-12.93l9.69-1.19v251.69l-9.69-1.18c-69.29-8.46-138.42-12.85-207.37-12.93-69.11-.07-138.22 4.15-207.33 12.89l-9.72 1.23V0l9.69 1.21zm207.36 30.14c-66.74.03-133.33-3.87-199.77-11.81v212.68c66.59-8.03 133.19-11.9 199.77-11.83 66.75.08 133.34 4.09 199.78 11.84V19.52c-66.44 7.82-133.03 11.79-199.78 11.83zM135.52 202.44c-2.86 0-5.18-2.32-5.18-5.19 0-2.86 2.32-5.18 5.18-5.18h238.83c2.86 0 5.19 2.32 5.19 5.18 0 2.87-2.33 5.19-5.19 5.19H135.52zm140.09-27.73c-2.86 0-5.19-2.33-5.19-5.19 0-2.86 2.33-5.19 5.19-5.19h98.74c2.86 0 5.19 2.33 5.19 5.19 0 2.86-2.33 5.19-5.19 5.19h-98.74zm32.26-27.74a5.185 5.185 0 1 1 0-10.37h66.33c2.86 0 5.19 2.32 5.19 5.19 0 2.86-2.33 5.18-5.19 5.18h-66.33zm-121.37 9.92h1.58c1.42 0 2.58-1.16 2.58-2.58v-4.18c0-1.42-1.16-2.58-2.58-2.58h-9.34c-1.42 0-2.58 1.16-2.58 2.58v4.18c0 1.42 1.16 2.58 2.58 2.58h1.6l-3.07 15.57h12.18l-2.95-15.57zm-53.86 15.57c1.21-15.7-1.86-15.03 11.28-19.95 6.57-2.46 12.4-5.57 18.42-9.34l11.28 29.29h-40.98zm72.33-30.62c5.51 3.53 10.78 6.42 17.03 8.51 12.27 4.08 12.23 4.65 12.15 22.11h-40.82l11.64-30.62zm-34.81-7.67c.29-2.41-6.86-11.62-8.17-16.03-2.8-4.45-3.79-11.52-.74-16.22 1.21-1.87.69-3.49.69-6.07 0-25.59 44.85-25.6 44.85 0 0 3.24-.74 3.99 1 6.55 2.93 4.25 1.43 11.8-1.05 15.75-1.59 4.64-9.09 13.4-8.57 16.03.47 13.14-28.1 12.7-28.01-.01zm105.98-62.33 18.28 12.76c.79.5 1.27 1.37 1.27 2.31 0 .89-.44 1.73-1.17 2.25l-18.22 12.58c-.48.41-1.1.63-1.73.63h-.03c-1.51 0-2.74-1.23-2.74-2.74V74.04c0-1.51 1.22-2.73 2.73-2.73.58 0 1.15.18 1.61.53zm-45.67 242.91h50.75c11.29 0 20.52 9.23 20.52 20.52v76.66h-91.79v-76.66c0-11.29 9.23-20.52 20.52-20.52zM73.16 265.71h50.75c11.29 0 20.52 9.24 20.52 20.52v15.02h-18.94c-9.36 0-17.87 3.82-24.03 9.98-1.1 1.11-2.13 2.29-3.08 3.53-.94-1.24-1.97-2.42-3.08-3.53-6.15-6.16-14.66-9.98-24.03-9.98H52.64v-15.02c0-11.29 9.24-20.52 20.52-20.52zm365.68 0h-50.75c-11.28 0-20.52 9.24-20.52 20.52v15.02h18.63c9.36 0 17.87 3.82 24.03 9.98 1.17 1.17 2.26 2.44 3.26 3.77.98-1.31 2.05-2.56 3.21-3.72l.08-.08c6.18-6.14 14.66-9.95 23.95-9.95h18.63v-15.02c0-11.29-9.24-20.52-20.52-20.52zm-155.73 0h50.75c11.29 0 20.52 9.24 20.52 20.52v15.02h-18.94c-9.36 0-17.87 3.82-24.03 9.98-1.1 1.11-2.13 2.29-3.08 3.53-.94-1.24-1.97-2.42-3.08-3.53-6.15-6.16-14.66-9.98-24.03-9.98h-18.63v-15.02c0-11.29 9.24-20.52 20.52-20.52zm-54.22 0h-50.75c-11.29 0-20.52 9.24-20.52 20.52v15.02h18.63c9.36 0 17.87 3.82 24.03 9.98 1.1 1.11 2.13 2.28 3.08 3.53.94-1.25 1.97-2.42 3.07-3.53 6.16-6.16 14.67-9.98 24.04-9.98h18.94v-15.02c0-11.29-9.24-20.52-20.52-20.52zm-52.64 49.04h-50.76c-11.28 0-20.51 9.23-20.51 20.52v76.66h91.78v-76.66c0-11.29-9.23-20.52-20.51-20.52zm-155.73 0h50.75c11.28 0 20.52 9.23 20.52 20.52v76.66H0v-76.66c0-11.29 9.23-20.52 20.52-20.52zm420.21 0h50.75c11.29 0 20.52 9.23 20.52 20.52v76.66h-91.79v-76.66c0-11.29 9.24-20.52 20.52-20.52z"/></svg>